<?xml version="1.0" encoding="UTF-8"?>
<svg xmlns="http://www.w3.org/2000/svg" xmlns:xlink="http://www.w3.org/1999/xlink" width="23pt" height="16pt" viewBox="0 0 23 16" version="1.1">
<defs>
<linearGradient id="linear0" gradientUnits="userSpaceOnUse" x1="36.4663" y1="-9.7959" x2="-1.5386" y2="28.209" gradientTransform="matrix(0.5,0,0,0.516129,0,0.000000000000000917)">
<stop offset="0" style="stop-color:rgb(19.215686%,76.078431%,86.666667%);stop-opacity:1;"/>
<stop offset="1" style="stop-color:rgb(4.313725%,60.784314%,84.313725%);stop-opacity:1;"/>
</linearGradient>
<linearGradient id="linear1" gradientUnits="userSpaceOnUse" x1="32.8628" y1="-13.397" x2="-5.1398" y2="24.6056" gradientTransform="matrix(0.5,0,0,0.516129,0,0.000000000000000917)">
<stop offset="0" style="stop-color:rgb(19.215686%,76.078431%,86.666667%);stop-opacity:1;"/>
<stop offset="1" style="stop-color:rgb(4.313725%,60.784314%,84.313725%);stop-opacity:1;"/>
</linearGradient>
<linearGradient id="linear2" gradientUnits="userSpaceOnUse" x1="32.7729" y1="-13.4912" x2="-5.2345" y2="24.5162" gradientTransform="matrix(0.5,0,0,0.516129,0,0.000000000000000917)">
<stop offset="0" style="stop-color:rgb(19.215686%,76.078431%,86.666667%);stop-opacity:1;"/>
<stop offset="1" style="stop-color:rgb(4.313725%,60.784314%,84.313725%);stop-opacity:1;"/>
</linearGradient>
<linearGradient id="linear3" gradientUnits="userSpaceOnUse" x1="36.2163" y1="-10.0464" x2="-1.7898" y2="27.9597" gradientTransform="matrix(0.5,0,0,0.516129,0,0.000000000000000917)">
<stop offset="0" style="stop-color:rgb(19.215686%,76.078431%,86.666667%);stop-opacity:1;"/>
<stop offset="1" style="stop-color:rgb(4.313725%,60.784314%,84.313725%);stop-opacity:1;"/>
</linearGradient>
<linearGradient id="linear4" gradientUnits="userSpaceOnUse" x1="55.7153" y1="9.4517" x2="17.7084" y2="47.4585" gradientTransform="matrix(0.5,0,0,0.516129,0,0.000000000000000917)">
<stop offset="0" style="stop-color:rgb(19.215686%,76.078431%,86.666667%);stop-opacity:1;"/>
<stop offset="1" style="stop-color:rgb(4.313725%,60.784314%,84.313725%);stop-opacity:1;"/>
</linearGradient>
<linearGradient id="linear5" gradientUnits="userSpaceOnUse" x1="49.2134" y1="2.9507" x2="11.2071" y2="40.957" gradientTransform="matrix(0.5,0,0,0.516129,0,0.000000000000000917)">
<stop offset="0" style="stop-color:rgb(19.215686%,76.078431%,86.666667%);stop-opacity:1;"/>
<stop offset="1" style="stop-color:rgb(4.313725%,60.784314%,84.313725%);stop-opacity:1;"/>
</linearGradient>
<linearGradient id="linear6" gradientUnits="userSpaceOnUse" x1="49.6577" y1="3.3955" x2="11.6531" y2="41.4002" gradientTransform="matrix(0.5,0,0,0.516129,0,0.000000000000000917)">
<stop offset="0" style="stop-color:rgb(19.215686%,76.078431%,86.666667%);stop-opacity:1;"/>
<stop offset="1" style="stop-color:rgb(4.313725%,60.784314%,84.313725%);stop-opacity:1;"/>
</linearGradient>
<linearGradient id="linear7" gradientUnits="userSpaceOnUse" x1="42.6128" y1="-3.6509" x2="4.6063" y2="34.3556" gradientTransform="matrix(0.5,0,0,0.516129,0,0.000000000000000917)">
<stop offset="0" style="stop-color:rgb(19.215686%,76.078431%,86.666667%);stop-opacity:1;"/>
<stop offset="1" style="stop-color:rgb(4.313725%,60.784314%,84.313725%);stop-opacity:1;"/>
</linearGradient>
<linearGradient id="linear8" gradientUnits="userSpaceOnUse" x1="45.0532" y1="-1.2095" x2="7.0471" y2="36.7966" gradientTransform="matrix(0.5,0,0,0.516129,0,0.000000000000000917)">
<stop offset="0" style="stop-color:rgb(19.215686%,76.078431%,86.666667%);stop-opacity:1;"/>
<stop offset="1" style="stop-color:rgb(4.313725%,60.784314%,84.313725%);stop-opacity:1;"/>
</linearGradient>
</defs>
<g id="surface1">
<path style=" stroke:none;fill-rule:nonzero;fill:url(#linear0);" d="M 11.585938 3.613281 C 11.167969 3.613281 10.835938 3.265625 10.835938 2.839844 L 10.835938 0.773438 C 10.835938 0.347656 11.167969 0 11.585938 0 C 11.996094 0 12.335938 0.347656 12.335938 0.773438 L 12.335938 2.839844 C 12.335938 3.265625 12 3.613281 11.585938 3.613281 Z M 11.585938 3.613281 "/>
<path style=" stroke:none;fill-rule:nonzero;fill:url(#linear1);" d="M 7.257812 4.742188 C 6.996094 4.742188 6.746094 4.601562 6.605469 4.355469 L 5.605469 2.566406 C 5.398438 2.195312 5.523438 1.722656 5.878906 1.507812 C 6.238281 1.296875 6.699219 1.421875 6.90625 1.792969 L 7.90625 3.578125 C 8.113281 3.949219 7.988281 4.421875 7.628906 4.636719 C 7.511719 4.707031 7.382812 4.742188 7.257812 4.742188 Z M 7.257812 4.742188 "/>
<path style=" stroke:none;fill-rule:nonzero;fill:url(#linear2);" d="M 4.050781 7.953125 C 3.925781 7.953125 3.796875 7.917969 3.675781 7.847656 L 1.945312 6.816406 C 1.585938 6.601562 1.464844 6.128906 1.671875 5.757812 C 1.878906 5.390625 2.335938 5.261719 2.695312 5.476562 L 4.425781 6.507812 C 4.785156 6.722656 4.910156 7.195312 4.703125 7.566406 C 4.5625 7.8125 4.3125 7.953125 4.050781 7.953125 Z M 4.050781 7.953125 "/>
<path style=" stroke:none;fill-rule:nonzero;fill:url(#linear3);" d="M 2.835938 12.386719 L 0.835938 12.386719 C 0.421875 12.386719 0.0859375 12.039062 0.0859375 11.613281 C 0.0859375 11.1875 0.421875 10.839844 0.835938 10.839844 L 2.835938 10.839844 C 3.25 10.839844 3.585938 11.1875 3.585938 11.613281 C 3.585938 12.039062 3.25 12.386719 2.835938 12.386719 Z M 2.835938 12.386719 "/>
<path style=" stroke:none;fill-rule:nonzero;fill:url(#linear4);" d="M 22.082031 12.644531 L 20.085938 12.644531 C 19.667969 12.644531 19.335938 12.296875 19.335938 11.871094 C 19.335938 11.441406 19.667969 11.097656 20.085938 11.097656 L 22.082031 11.097656 C 22.496094 11.097656 22.832031 11.441406 22.832031 11.871094 C 22.832031 12.296875 22.496094 12.644531 22.082031 12.644531 Z M 22.082031 12.644531 "/>
<path style=" stroke:none;fill-rule:nonzero;fill:url(#linear5);" d="M 22.082031 15.914062 L 0.75 15.914062 C 0.335938 15.914062 0 15.566406 0 15.136719 C 0 14.710938 0.335938 14.363281 0.75 14.363281 L 22.082031 14.363281 C 22.496094 14.363281 22.832031 14.710938 22.832031 15.136719 C 22.832031 15.566406 22.496094 15.914062 22.082031 15.914062 Z M 22.082031 15.914062 "/>
<path style=" stroke:none;fill-rule:nonzero;fill:url(#linear6);" d="M 18.992188 8.175781 C 18.730469 8.175781 18.480469 8.035156 18.339844 7.789062 C 18.132812 7.417969 18.257812 6.945312 18.613281 6.730469 L 20.347656 5.699219 C 20.707031 5.484375 21.164062 5.613281 21.371094 5.984375 C 21.578125 6.351562 21.457031 6.828125 21.097656 7.039062 L 19.363281 8.070312 C 19.246094 8.140625 19.117188 8.175781 18.992188 8.175781 Z M 18.992188 8.175781 "/>
<path style=" stroke:none;fill-rule:nonzero;fill:url(#linear7);" d="M 15.878906 4.871094 C 15.75 4.871094 15.621094 4.835938 15.503906 4.765625 C 15.144531 4.554688 15.023438 4.078125 15.230469 3.707031 L 16.230469 1.921875 C 16.4375 1.550781 16.894531 1.425781 17.253906 1.636719 C 17.613281 1.851562 17.734375 2.324219 17.527344 2.695312 L 16.527344 4.484375 C 16.390625 4.730469 16.136719 4.871094 15.878906 4.871094 Z M 15.878906 4.871094 "/>
<path style=" stroke:none;fill-rule:nonzero;fill:url(#linear8);" d="M 7.40625 12.527344 C 7.359375 12.269531 7.335938 12.011719 7.335938 11.742188 C 7.335938 9.394531 9.183594 7.484375 11.460938 7.484375 C 13.734375 7.484375 15.585938 9.394531 15.585938 11.742188 C 15.585938 12.011719 15.558594 12.269531 15.511719 12.527344 L 17.53125 12.527344 C 17.5625 12.269531 17.585938 12.007812 17.585938 11.742188 C 17.585938 8.253906 14.835938 5.417969 11.460938 5.417969 C 8.082031 5.417969 5.335938 8.253906 5.335938 11.742188 C 5.335938 12.007812 5.355469 12.269531 5.386719 12.527344 Z M 7.40625 12.527344 "/>
</g>
</svg>
