<?xml version="1.0" encoding="UTF-8"?>
<svg xmlns="http://www.w3.org/2000/svg" xmlns:xlink="http://www.w3.org/1999/xlink" width="23pt" height="15pt" viewBox="0 0 23 15" version="1.1">
<defs>
<linearGradient id="linear0" gradientUnits="userSpaceOnUse" x1="42.8311" y1="-1.3892" x2="-4.0687" y2="45.5106" gradientTransform="matrix(0.511111,0,0,0.517241,0,0)">
<stop offset="0" style="stop-color:rgb(19.215686%,76.078431%,86.666667%);stop-opacity:1;"/>
<stop offset="1" style="stop-color:rgb(4.313725%,60.784314%,84.313725%);stop-opacity:1;"/>
</linearGradient>
</defs>
<g id="surface1">
<path style=" stroke:none;fill-rule:nonzero;fill:url(#linear0);" d="M 17.667969 14.925781 L 4.757812 14.925781 C 4.308594 14.925781 3.863281 14.851562 3.429688 14.707031 C 1.421875 14.097656 0 12.164062 0 10.011719 C 0 7.34375 2.113281 5.167969 4.730469 5.097656 C 5.300781 2.203125 7.851562 0 10.855469 0 C 13.414062 0 15.652344 1.546875 16.609375 3.871094 C 16.886719 3.828125 17.167969 3.804688 17.445312 3.804688 C 20.476562 3.804688 22.941406 6.296875 22.941406 9.363281 C 22.941406 11.796875 21.40625 13.921875 19.125 14.660156 C 18.652344 14.835938 18.160156 14.925781 17.667969 14.925781 Z M 4.855469 7.167969 C 3.304688 7.167969 2.042969 8.441406 2.042969 10.011719 C 2.042969 11.257812 2.867188 12.375 4.046875 12.734375 C 4.296875 12.816406 4.527344 12.855469 4.757812 12.855469 L 17.667969 12.855469 C 17.925781 12.855469 18.179688 12.808594 18.429688 12.714844 L 18.484375 12.695312 C 19.925781 12.234375 20.894531 10.898438 20.894531 9.363281 C 20.894531 7.441406 19.347656 5.875 17.445312 5.875 C 17.054688 5.875 16.664062 5.945312 16.28125 6.082031 L 15.203125 6.476562 L 14.941406 5.34375 C 14.492188 3.417969 12.8125 2.070312 10.855469 2.070312 C 8.585938 2.070312 6.703125 3.9375 6.660156 6.234375 L 6.632812 7.476562 L 5.429688 7.226562 C 5.242188 7.1875 5.046875 7.167969 4.855469 7.167969 Z M 4.855469 7.167969 "/>
</g>
</svg>
