<?xml version="1.0" encoding="UTF-8"?>
<svg xmlns="http://www.w3.org/2000/svg" xmlns:xlink="http://www.w3.org/1999/xlink" width="30pt" height="18pt" viewBox="0 0 30 18" version="1.1">
<defs>
<linearGradient id="linear0" gradientUnits="userSpaceOnUse" x1="48.3164" y1="0.4604" x2="10.5301" y2="38.2467" gradientTransform="matrix(0.508475,0,0,0.514286,0,0)">
<stop offset="0" style="stop-color:rgb(19.215686%,76.078431%,86.666667%);stop-opacity:1;"/>
<stop offset="1" style="stop-color:rgb(4.313725%,60.784314%,84.313725%);stop-opacity:1;"/>
</linearGradient>
</defs>
<g id="surface1">
<path style=" stroke:none;fill-rule:nonzero;fill:url(#linear0);" d="M 25.625 2.859375 C 25.414062 2.859375 25.207031 2.875 24.996094 2.90625 C 24.277344 1.164062 22.59375 0 20.671875 0 C 18.414062 0 16.496094 1.65625 16.070312 3.828125 C 15.386719 3.847656 14.757812 4.058594 14.214844 4.402344 C 13.230469 3.746094 12.054688 3.371094 10.800781 3.371094 C 7.8125 3.371094 5.273438 5.5625 4.707031 8.441406 C 2.101562 8.507812 0 10.675781 0 13.324219 C 0 15.464844 1.414062 17.386719 3.414062 17.996094 C 3.84375 18.140625 4.289062 18.210938 4.734375 18.210938 L 17.578125 18.210938 C 18.070312 18.210938 18.554688 18.121094 19.027344 17.949219 C 21.296875 17.210938 22.824219 15.101562 22.824219 12.683594 C 22.824219 12.171875 22.75 11.679688 22.621094 11.210938 L 25.792969 11.210938 C 26.171875 11.210938 26.542969 11.140625 26.867188 11.015625 C 28.59375 10.46875 29.753906 8.867188 29.753906 7.035156 C 29.753906 4.730469 27.902344 2.859375 25.625 2.859375 Z M 18.386719 15.996094 L 18.335938 16.011719 C 18.085938 16.109375 17.832031 16.15625 17.578125 16.15625 L 4.734375 16.15625 C 4.503906 16.15625 4.273438 16.117188 4.023438 16.035156 C 2.851562 15.675781 2.035156 14.5625 2.035156 13.324219 C 2.035156 11.765625 3.289062 10.496094 4.832031 10.496094 C 5.019531 10.496094 5.214844 10.519531 5.402344 10.558594 L 6.601562 10.804688 L 6.625 9.570312 C 6.671875 7.285156 8.542969 5.429688 10.800781 5.429688 C 12.746094 5.429688 14.417969 6.769531 14.863281 8.6875 L 15.125 9.808594 L 16.195312 9.421875 C 16.578125 9.28125 16.96875 9.210938 17.355469 9.210938 C 19.25 9.210938 20.789062 10.769531 20.789062 12.683594 C 20.789062 14.207031 19.824219 15.539062 18.386719 15.996094 Z M 26.363281 9.546875 C 26.175781 9.621094 25.984375 9.65625 25.792969 9.65625 L 21.925781 9.65625 C 20.945312 8.152344 19.265625 7.15625 17.355469 7.15625 C 17.078125 7.15625 16.800781 7.175781 16.527344 7.21875 C 16.265625 6.589844 15.90625 6.015625 15.472656 5.515625 C 15.691406 5.4375 15.917969 5.382812 16.164062 5.382812 C 16.308594 5.382812 16.453125 5.398438 16.59375 5.429688 L 17.5 5.617188 L 17.519531 4.683594 C 17.550781 2.957031 18.96875 1.554688 20.671875 1.554688 C 22.140625 1.554688 23.40625 2.566406 23.742188 4.015625 L 23.9375 4.863281 L 24.75 4.570312 C 25.035156 4.464844 25.332031 4.410156 25.625 4.410156 C 27.054688 4.410156 28.21875 5.589844 28.21875 7.035156 C 28.21875 8.183594 27.488281 9.191406 26.363281 9.546875 Z M 26.363281 9.546875 "/>
</g>
</svg>
