<?xml version="1.0" encoding="UTF-8"?>
<svg xmlns="http://www.w3.org/2000/svg" xmlns:xlink="http://www.w3.org/1999/xlink" width="22pt" height="22pt" viewBox="0 0 22 22" version="1.1">
<defs>
<linearGradient id="linear0" gradientUnits="userSpaceOnUse" x1="39.8936" y1="1.5498" x2="0.4618" y2="40.9816" gradientTransform="matrix(0.488889,0,0,0.5,0,0)">
<stop offset="0" style="stop-color:rgb(19.215686%,76.078431%,86.666667%);stop-opacity:1;"/>
<stop offset="1" style="stop-color:rgb(4.313725%,60.784314%,84.313725%);stop-opacity:1;"/>
</linearGradient>
<linearGradient id="linear1" gradientUnits="userSpaceOnUse" x1="42.2822" y1="3.9409" x2="2.8521" y2="43.3711" gradientTransform="matrix(0.488889,0,0,0.5,0,0)">
<stop offset="0" style="stop-color:rgb(19.215686%,76.078431%,86.666667%);stop-opacity:1;"/>
<stop offset="1" style="stop-color:rgb(4.313725%,60.784314%,84.313725%);stop-opacity:1;"/>
</linearGradient>
<linearGradient id="linear2" gradientUnits="userSpaceOnUse" x1="47.0332" y1="8.6909" x2="7.6022" y2="48.122" gradientTransform="matrix(0.488889,0,0,0.5,0,0)">
<stop offset="0" style="stop-color:rgb(19.215686%,76.078431%,86.666667%);stop-opacity:1;"/>
<stop offset="1" style="stop-color:rgb(4.313725%,60.784314%,84.313725%);stop-opacity:1;"/>
</linearGradient>
<linearGradient id="linear3" gradientUnits="userSpaceOnUse" x1="51.7812" y1="13.4419" x2="12.3535" y2="52.8696" gradientTransform="matrix(0.488889,0,0,0.5,0,0)">
<stop offset="0" style="stop-color:rgb(19.215686%,76.078431%,86.666667%);stop-opacity:1;"/>
<stop offset="1" style="stop-color:rgb(4.313725%,60.784314%,84.313725%);stop-opacity:1;"/>
</linearGradient>
<linearGradient id="linear4" gradientUnits="userSpaceOnUse" x1="46.9385" y1="8.5986" x2="7.5091" y2="48.028" gradientTransform="matrix(0.488889,0,0,0.5,0,0)">
<stop offset="0" style="stop-color:rgb(19.215686%,76.078431%,86.666667%);stop-opacity:1;"/>
<stop offset="1" style="stop-color:rgb(4.313725%,60.784314%,84.313725%);stop-opacity:1;"/>
</linearGradient>
<linearGradient id="linear5" gradientUnits="userSpaceOnUse" x1="51.6875" y1="13.3481" x2="12.259" y2="52.7767" gradientTransform="matrix(0.488889,0,0,0.5,0,0)">
<stop offset="0" style="stop-color:rgb(19.215686%,76.078431%,86.666667%);stop-opacity:1;"/>
<stop offset="1" style="stop-color:rgb(4.313725%,60.784314%,84.313725%);stop-opacity:1;"/>
</linearGradient>
</defs>
<g id="surface1">
<path style=" stroke:none;fill-rule:nonzero;fill:url(#linear0);" d="M 16.6875 3.675781 C 16.421875 3.675781 16.152344 3.699219 15.886719 3.742188 C 14.972656 1.496094 12.832031 0 10.382812 0 C 7.511719 0 5.070312 2.132812 4.527344 4.929688 C 2.019531 4.992188 0 7.097656 0 9.675781 C 0 11.757812 1.359375 13.628906 3.28125 14.21875 C 3.695312 14.355469 4.121094 14.425781 4.554688 14.425781 L 16.902344 14.425781 C 17.371094 14.425781 17.839844 14.339844 18.292969 14.171875 C 20.476562 13.457031 21.945312 11.402344 21.945312 9.050781 C 21.941406 6.089844 19.585938 3.675781 16.6875 3.675781 Z M 17.679688 12.273438 L 17.628906 12.289062 C 17.390625 12.382812 17.144531 12.425781 16.898438 12.425781 L 4.550781 12.425781 C 4.332031 12.425781 4.109375 12.390625 3.871094 12.308594 C 2.742188 11.964844 1.957031 10.882812 1.957031 9.675781 C 1.957031 8.160156 3.160156 6.925781 4.644531 6.925781 C 4.828125 6.925781 5.011719 6.945312 5.195312 6.984375 L 6.34375 7.226562 L 6.371094 6.027344 C 6.414062 3.804688 8.214844 2 10.382812 2 C 12.253906 2 13.863281 3.300781 14.289062 5.167969 L 14.542969 6.257812 L 15.574219 5.878906 C 15.9375 5.746094 16.3125 5.679688 16.6875 5.679688 C 18.507812 5.679688 19.988281 7.191406 19.988281 9.054688 C 19.988281 10.535156 19.058594 11.828125 17.679688 12.273438 Z M 17.679688 12.273438 "/>
<path style=" stroke:none;fill-rule:nonzero;fill:url(#linear1);" d="M 6.585938 15.734375 C 6.234375 15.527344 5.789062 15.652344 5.585938 16.007812 L 4.605469 17.742188 C 4.40625 18.101562 4.523438 18.558594 4.875 18.765625 C 4.992188 18.835938 5.117188 18.867188 5.242188 18.867188 C 5.496094 18.867188 5.742188 18.730469 5.878906 18.492188 L 6.855469 16.757812 C 7.058594 16.398438 6.9375 15.941406 6.585938 15.734375 Z M 6.585938 15.734375 "/>
<path style=" stroke:none;fill-rule:nonzero;fill:url(#linear2);" d="M 11.230469 15.734375 C 10.878906 15.527344 10.429688 15.652344 10.230469 16.007812 L 9.25 17.742188 C 9.050781 18.101562 9.167969 18.558594 9.519531 18.765625 C 9.636719 18.835938 9.761719 18.867188 9.886719 18.867188 C 10.140625 18.867188 10.386719 18.730469 10.523438 18.492188 L 11.5 16.757812 C 11.703125 16.398438 11.582031 15.941406 11.230469 15.734375 Z M 11.230469 15.734375 "/>
<path style=" stroke:none;fill-rule:nonzero;fill:url(#linear3);" d="M 15.875 15.734375 C 15.523438 15.527344 15.074219 15.652344 14.875 16.007812 L 13.894531 17.742188 C 13.695312 18.101562 13.8125 18.558594 14.164062 18.765625 C 14.28125 18.835938 14.40625 18.867188 14.53125 18.867188 C 14.785156 18.867188 15.03125 18.730469 15.167969 18.492188 L 16.144531 16.757812 C 16.347656 16.398438 16.226562 15.941406 15.875 15.734375 Z M 15.875 15.734375 "/>
<path style=" stroke:none;fill-rule:nonzero;fill:url(#linear4);" d="M 7.960938 18.984375 C 7.609375 18.777344 7.164062 18.902344 6.960938 19.257812 L 5.984375 20.992188 C 5.78125 21.351562 5.902344 21.808594 6.25 22.015625 C 6.367188 22.085938 6.492188 22.117188 6.617188 22.117188 C 6.871094 22.117188 7.117188 21.980469 7.253906 21.742188 L 8.230469 20.007812 C 8.433594 19.648438 8.3125 19.191406 7.960938 18.984375 Z M 7.960938 18.984375 "/>
<path style=" stroke:none;fill-rule:nonzero;fill:url(#linear5);" d="M 12.605469 18.984375 C 12.253906 18.777344 11.804688 18.902344 11.605469 19.257812 L 10.625 20.992188 C 10.425781 21.351562 10.542969 21.808594 10.894531 22.015625 C 11.011719 22.085938 11.136719 22.117188 11.261719 22.117188 C 11.515625 22.117188 11.761719 21.980469 11.898438 21.742188 L 12.875 20.007812 C 13.078125 19.648438 12.957031 19.191406 12.605469 18.984375 Z M 12.605469 18.984375 "/>
</g>
</svg>
