<?xml version="1.0" encoding="UTF-8"?>
<svg xmlns="http://www.w3.org/2000/svg" xmlns:xlink="http://www.w3.org/1999/xlink" width="22pt" height="19pt" viewBox="0 0 22 19" version="1.1">
<defs>
<linearGradient id="linear0" gradientUnits="userSpaceOnUse" x1="42.126" y1="-0.6821" x2="1.9571" y2="39.4868" gradientTransform="matrix(0.488889,0,0,0.5,0,0)">
<stop offset="0" style="stop-color:rgb(19.215686%,76.078431%,86.666667%);stop-opacity:1;"/>
<stop offset="1" style="stop-color:rgb(4.313725%,60.784314%,84.313725%);stop-opacity:1;"/>
</linearGradient>
<linearGradient id="linear1" gradientUnits="userSpaceOnUse" x1="44.5166" y1="1.7075" x2="4.3474" y2="41.8767" gradientTransform="matrix(0.488889,0,0,0.5,0,0)">
<stop offset="0" style="stop-color:rgb(19.215686%,76.078431%,86.666667%);stop-opacity:1;"/>
<stop offset="1" style="stop-color:rgb(4.313725%,60.784314%,84.313725%);stop-opacity:1;"/>
</linearGradient>
<linearGradient id="linear2" gradientUnits="userSpaceOnUse" x1="49.2646" y1="6.459" x2="9.0974" y2="46.6262" gradientTransform="matrix(0.488889,0,0,0.5,0,0)">
<stop offset="0" style="stop-color:rgb(19.215686%,76.078431%,86.666667%);stop-opacity:1;"/>
<stop offset="1" style="stop-color:rgb(4.313725%,60.784314%,84.313725%);stop-opacity:1;"/>
</linearGradient>
<linearGradient id="linear3" gradientUnits="userSpaceOnUse" x1="54.0156" y1="11.2075" x2="13.8466" y2="51.3765" gradientTransform="matrix(0.488889,0,0,0.5,0,0)">
<stop offset="0" style="stop-color:rgb(19.215686%,76.078431%,86.666667%);stop-opacity:1;"/>
<stop offset="1" style="stop-color:rgb(4.313725%,60.784314%,84.313725%);stop-opacity:1;"/>
</linearGradient>
</defs>
<g id="surface1">
<path style=" stroke:none;fill-rule:nonzero;fill:url(#linear0);" d="M 16.898438 14.425781 L 4.550781 14.425781 C 4.121094 14.425781 3.695312 14.355469 3.28125 14.21875 C 1.359375 13.628906 0 11.757812 0 9.675781 C 0 7.097656 2.019531 4.992188 4.527344 4.929688 C 5.070312 2.132812 7.511719 0 10.382812 0 C 12.832031 0 14.972656 1.496094 15.886719 3.742188 C 16.152344 3.699219 16.421875 3.675781 16.6875 3.675781 C 19.585938 3.675781 21.941406 6.089844 21.941406 9.050781 C 21.941406 11.402344 20.476562 13.457031 18.292969 14.171875 C 17.839844 14.339844 17.371094 14.425781 16.898438 14.425781 Z M 4.644531 6.925781 C 3.160156 6.925781 1.957031 8.160156 1.957031 9.675781 C 1.957031 10.882812 2.742188 11.964844 3.871094 12.308594 C 4.109375 12.390625 4.332031 12.425781 4.550781 12.425781 L 16.898438 12.425781 C 17.144531 12.425781 17.390625 12.382812 17.628906 12.289062 L 17.679688 12.273438 C 19.058594 11.828125 19.988281 10.535156 19.988281 9.050781 C 19.988281 7.191406 18.507812 5.675781 16.6875 5.675781 C 16.3125 5.675781 15.9375 5.746094 15.574219 5.878906 L 14.542969 6.257812 L 14.289062 5.167969 C 13.863281 3.300781 12.253906 2 10.382812 2 C 8.214844 2 6.414062 3.804688 6.371094 6.027344 L 6.34375 7.226562 L 5.195312 6.984375 C 5.011719 6.949219 4.828125 6.925781 4.644531 6.925781 Z M 4.644531 6.925781 "/>
<path style=" stroke:none;fill-rule:nonzero;fill:url(#linear1);" d="M 5.242188 18.867188 C 5.117188 18.867188 4.992188 18.832031 4.875 18.765625 C 4.523438 18.558594 4.40625 18.097656 4.605469 17.742188 L 5.585938 16.007812 C 5.789062 15.648438 6.234375 15.527344 6.585938 15.734375 C 6.9375 15.941406 7.058594 16.398438 6.855469 16.757812 L 5.878906 18.492188 C 5.742188 18.730469 5.496094 18.867188 5.242188 18.867188 Z M 5.242188 18.867188 "/>
<path style=" stroke:none;fill-rule:nonzero;fill:url(#linear2);" d="M 9.886719 18.867188 C 9.761719 18.867188 9.636719 18.832031 9.519531 18.765625 C 9.167969 18.558594 9.050781 18.097656 9.25 17.742188 L 10.230469 16.007812 C 10.433594 15.648438 10.878906 15.527344 11.230469 15.734375 C 11.582031 15.941406 11.703125 16.398438 11.5 16.757812 L 10.523438 18.492188 C 10.386719 18.730469 10.140625 18.867188 9.886719 18.867188 Z M 9.886719 18.867188 "/>
<path style=" stroke:none;fill-rule:nonzero;fill:url(#linear3);" d="M 14.53125 18.867188 C 14.40625 18.867188 14.28125 18.832031 14.164062 18.765625 C 13.8125 18.558594 13.695312 18.097656 13.894531 17.742188 L 14.875 16.007812 C 15.078125 15.648438 15.523438 15.527344 15.875 15.734375 C 16.226562 15.941406 16.347656 16.398438 16.144531 16.757812 L 15.167969 18.492188 C 15.03125 18.730469 14.785156 18.867188 14.53125 18.867188 Z M 14.53125 18.867188 "/>
</g>
</svg>
