<?xml version="1.0" encoding="UTF-8"?>
<svg xmlns="http://www.w3.org/2000/svg" xmlns:xlink="http://www.w3.org/1999/xlink" width="23pt" height="23pt" viewBox="0 0 23 23" version="1.1">
<defs>
<linearGradient id="linear0" gradientUnits="userSpaceOnUse" x1="40.147" y1="1.2949" x2="0.8528" y2="40.5891" gradientTransform="matrix(0.511111,0,0,0.511111,0,0)">
<stop offset="0" style="stop-color:rgb(19.215686%,76.078431%,86.666667%);stop-opacity:1;"/>
<stop offset="1" style="stop-color:rgb(4.313725%,60.784314%,84.313725%);stop-opacity:1;"/>
</linearGradient>
<linearGradient id="linear1" gradientUnits="userSpaceOnUse" x1="49.103" y1="10.2515" x2="9.8093" y2="49.5452" gradientTransform="matrix(0.511111,0,0,0.511111,0,0)">
<stop offset="0" style="stop-color:rgb(19.215686%,76.078431%,86.666667%);stop-opacity:1;"/>
<stop offset="1" style="stop-color:rgb(4.313725%,60.784314%,84.313725%);stop-opacity:1;"/>
</linearGradient>
</defs>
<g id="surface1">
<path style=" stroke:none;fill-rule:nonzero;fill:url(#linear0);" d="M 17.445312 3.757812 C 17.167969 3.757812 16.886719 3.78125 16.609375 3.824219 C 15.652344 1.527344 13.414062 0 10.855469 0 C 7.851562 0 5.300781 2.179688 4.730469 5.039062 C 2.113281 5.105469 0 7.257812 0 9.890625 C 0 12.019531 1.421875 13.929688 3.429688 14.535156 C 3.863281 14.675781 4.308594 14.75 4.761719 14.75 L 17.667969 14.75 C 18.160156 14.75 18.652344 14.660156 19.125 14.484375 C 21.40625 13.753906 22.941406 11.65625 22.941406 9.253906 C 22.941406 6.222656 20.476562 3.757812 17.445312 3.757812 Z M 18.484375 12.542969 L 18.433594 12.5625 C 18.179688 12.65625 17.925781 12.703125 17.667969 12.703125 L 4.757812 12.703125 C 4.527344 12.703125 4.296875 12.667969 4.046875 12.585938 C 2.867188 12.230469 2.042969 11.125 2.042969 9.890625 C 2.042969 8.34375 3.304688 7.082031 4.855469 7.082031 C 5.046875 7.082031 5.242188 7.101562 5.429688 7.140625 L 6.632812 7.386719 L 6.660156 6.160156 C 6.703125 3.890625 8.585938 2.042969 10.855469 2.042969 C 12.8125 2.042969 14.492188 3.375 14.941406 5.28125 L 15.203125 6.398438 L 16.28125 6.011719 C 16.664062 5.875 17.054688 5.804688 17.445312 5.804688 C 19.347656 5.804688 20.894531 7.351562 20.894531 9.253906 C 20.894531 10.765625 19.925781 12.089844 18.484375 12.542969 Z M 18.484375 12.542969 "/>
<path style=" stroke:none;fill-rule:nonzero;fill:url(#linear1);" d="M 12.746094 17.613281 L 11.566406 17.613281 L 11.851562 17.152344 C 12.074219 16.792969 11.964844 16.316406 11.605469 16.097656 C 11.242188 15.875 10.769531 15.984375 10.546875 16.34375 L 9.539062 17.976562 C 9.394531 18.210938 9.386719 18.507812 9.523438 18.753906 C 9.660156 18.996094 9.914062 19.144531 10.191406 19.144531 L 11.4375 19.144531 L 10.035156 21.644531 C 9.828125 22.015625 9.960938 22.484375 10.328125 22.691406 C 10.445312 22.757812 10.574219 22.789062 10.703125 22.789062 C 10.972656 22.789062 11.230469 22.648438 11.371094 22.394531 L 13.417969 18.753906 C 13.550781 18.515625 13.546875 18.226562 13.410156 17.992188 C 13.273438 17.757812 13.019531 17.613281 12.746094 17.613281 Z M 12.746094 17.613281 "/>
</g>
</svg>
