<?xml version="1.0" encoding="UTF-8"?>
<svg xmlns="http://www.w3.org/2000/svg" xmlns:xlink="http://www.w3.org/1999/xlink" width="22pt" height="22pt" viewBox="0 0 22 22" version="1.1">
<defs>
<linearGradient id="linear0" gradientUnits="userSpaceOnUse" x1="41.085" y1="0.3569" x2="1.3075" y2="40.1344" gradientTransform="matrix(0.488889,0,0,0.5,0,0)">
<stop offset="0" style="stop-color:rgb(19.215686%,76.078431%,86.666667%);stop-opacity:1;"/>
<stop offset="1" style="stop-color:rgb(4.313725%,60.784314%,84.313725%);stop-opacity:1;"/>
</linearGradient>
<linearGradient id="linear1" gradientUnits="userSpaceOnUse" x1="43.2178" y1="2.4854" x2="3.4376" y2="42.2655" gradientTransform="matrix(0.488889,0,0,0.5,0,0)">
<stop offset="0" style="stop-color:rgb(19.215686%,76.078431%,86.666667%);stop-opacity:1;"/>
<stop offset="1" style="stop-color:rgb(4.313725%,60.784314%,84.313725%);stop-opacity:1;"/>
</linearGradient>
<linearGradient id="linear2" gradientUnits="userSpaceOnUse" x1="48.1553" y1="7.4229" x2="8.3751" y2="47.203" gradientTransform="matrix(0.488889,0,0,0.5,0,0)">
<stop offset="0" style="stop-color:rgb(19.215686%,76.078431%,86.666667%);stop-opacity:1;"/>
<stop offset="1" style="stop-color:rgb(4.313725%,60.784314%,84.313725%);stop-opacity:1;"/>
</linearGradient>
<linearGradient id="linear3" gradientUnits="userSpaceOnUse" x1="53.0918" y1="12.3608" x2="13.3116" y2="52.141" gradientTransform="matrix(0.488889,0,0,0.5,0,0)">
<stop offset="0" style="stop-color:rgb(19.215686%,76.078431%,86.666667%);stop-opacity:1;"/>
<stop offset="1" style="stop-color:rgb(4.313725%,60.784314%,84.313725%);stop-opacity:1;"/>
</linearGradient>
<linearGradient id="linear4" gradientUnits="userSpaceOnUse" x1="48.3887" y1="7.6694" x2="8.6163" y2="47.4418" gradientTransform="matrix(0.488889,0,0,0.5,0,0)">
<stop offset="0" style="stop-color:rgb(19.215686%,76.078431%,86.666667%);stop-opacity:1;"/>
<stop offset="1" style="stop-color:rgb(4.313725%,60.784314%,84.313725%);stop-opacity:1;"/>
</linearGradient>
<linearGradient id="linear5" gradientUnits="userSpaceOnUse" x1="53.3281" y1="12.6035" x2="13.553" y2="52.3787" gradientTransform="matrix(0.488889,0,0,0.5,0,0)">
<stop offset="0" style="stop-color:rgb(19.215686%,76.078431%,86.666667%);stop-opacity:1;"/>
<stop offset="1" style="stop-color:rgb(4.313725%,60.784314%,84.313725%);stop-opacity:1;"/>
</linearGradient>
</defs>
<g id="surface1">
<path style=" stroke:none;fill-rule:nonzero;fill:url(#linear0);" d="M 16.6875 3.675781 C 16.421875 3.675781 16.152344 3.699219 15.886719 3.742188 C 14.972656 1.496094 12.832031 0 10.382812 0 C 7.511719 0 5.070312 2.132812 4.527344 4.929688 C 2.019531 4.992188 0 7.097656 0 9.675781 C 0 11.757812 1.359375 13.628906 3.28125 14.21875 C 3.695312 14.355469 4.121094 14.425781 4.554688 14.425781 L 16.902344 14.425781 C 17.371094 14.425781 17.839844 14.339844 18.292969 14.171875 C 20.476562 13.457031 21.945312 11.402344 21.945312 9.050781 C 21.945312 6.089844 19.585938 3.675781 16.6875 3.675781 Z M 17.679688 12.273438 L 17.632812 12.289062 C 17.390625 12.382812 17.144531 12.425781 16.898438 12.425781 L 4.550781 12.425781 C 4.332031 12.425781 4.109375 12.390625 3.871094 12.308594 C 2.742188 11.964844 1.957031 10.882812 1.957031 9.675781 C 1.957031 8.160156 3.164062 6.925781 4.644531 6.925781 C 4.828125 6.925781 5.011719 6.945312 5.195312 6.984375 L 6.347656 7.226562 L 6.371094 6.027344 C 6.414062 3.804688 8.214844 2 10.382812 2 C 12.253906 2 13.863281 3.300781 14.289062 5.167969 L 14.542969 6.257812 L 15.570312 5.878906 C 15.9375 5.746094 16.3125 5.679688 16.6875 5.679688 C 18.507812 5.679688 19.988281 7.191406 19.988281 9.054688 C 19.988281 10.535156 19.0625 11.828125 17.679688 12.273438 Z M 17.679688 12.273438 "/>
<path style=" stroke:none;fill-rule:nonzero;fill:url(#linear1);" d="M 6.382812 17.65625 C 6.652344 17.65625 6.871094 17.433594 6.871094 17.15625 C 6.871094 16.878906 6.652344 16.65625 6.382812 16.65625 L 6.058594 16.65625 L 6.058594 16.324219 C 6.058594 16.046875 5.839844 15.824219 5.570312 15.824219 C 5.296875 15.824219 5.078125 16.046875 5.078125 16.324219 L 5.078125 16.65625 L 4.753906 16.65625 C 4.484375 16.65625 4.265625 16.878906 4.265625 17.15625 C 4.265625 17.433594 4.484375 17.65625 4.753906 17.65625 L 5.078125 17.65625 L 5.078125 17.988281 C 5.078125 18.265625 5.296875 18.488281 5.570312 18.488281 C 5.839844 18.488281 6.058594 18.265625 6.058594 17.988281 L 6.058594 17.65625 Z M 6.382812 17.65625 "/>
<path style=" stroke:none;fill-rule:nonzero;fill:url(#linear2);" d="M 11.210938 17.65625 C 11.480469 17.65625 11.699219 17.433594 11.699219 17.15625 C 11.699219 16.878906 11.480469 16.65625 11.210938 16.65625 L 10.886719 16.65625 L 10.886719 16.324219 C 10.886719 16.046875 10.667969 15.824219 10.398438 15.824219 C 10.125 15.824219 9.90625 16.046875 9.90625 16.324219 L 9.90625 16.65625 L 9.582031 16.65625 C 9.3125 16.65625 9.09375 16.878906 9.09375 17.15625 C 9.09375 17.433594 9.3125 17.65625 9.582031 17.65625 L 9.90625 17.65625 L 9.90625 17.988281 C 9.90625 18.265625 10.125 18.488281 10.398438 18.488281 C 10.667969 18.488281 10.886719 18.265625 10.886719 17.988281 L 10.886719 17.65625 Z M 11.210938 17.65625 "/>
<path style=" stroke:none;fill-rule:nonzero;fill:url(#linear3);" d="M 16.039062 16.65625 L 15.714844 16.65625 L 15.714844 16.324219 C 15.714844 16.046875 15.496094 15.824219 15.222656 15.824219 C 14.953125 15.824219 14.734375 16.046875 14.734375 16.324219 L 14.734375 16.65625 L 14.410156 16.65625 C 14.136719 16.65625 13.921875 16.878906 13.921875 17.15625 C 13.921875 17.433594 14.136719 17.65625 14.410156 17.65625 L 14.734375 17.65625 L 14.734375 17.988281 C 14.734375 18.265625 14.953125 18.488281 15.222656 18.488281 C 15.496094 18.488281 15.714844 18.265625 15.714844 17.988281 L 15.714844 17.65625 L 16.039062 17.65625 C 16.308594 17.65625 16.527344 17.433594 16.527344 17.15625 C 16.527344 16.878906 16.308594 16.65625 16.039062 16.65625 Z M 16.039062 16.65625 "/>
<path style=" stroke:none;fill-rule:nonzero;fill:url(#linear4);" d="M 8.238281 19.9375 L 7.910156 19.9375 L 7.910156 19.605469 C 7.910156 19.328125 7.691406 19.105469 7.421875 19.105469 C 7.152344 19.105469 6.933594 19.328125 6.933594 19.605469 L 6.933594 19.9375 L 6.605469 19.9375 C 6.335938 19.9375 6.117188 20.160156 6.117188 20.4375 C 6.117188 20.714844 6.335938 20.9375 6.605469 20.9375 L 6.933594 20.9375 L 6.933594 21.273438 C 6.933594 21.546875 7.152344 21.773438 7.421875 21.773438 C 7.691406 21.773438 7.910156 21.546875 7.910156 21.273438 L 7.910156 20.9375 L 8.238281 20.9375 C 8.507812 20.9375 8.726562 20.714844 8.726562 20.4375 C 8.726562 20.160156 8.507812 19.9375 8.238281 19.9375 Z M 8.238281 19.9375 "/>
<path style=" stroke:none;fill-rule:nonzero;fill:url(#linear5);" d="M 13.066406 19.9375 L 12.738281 19.9375 L 12.738281 19.605469 C 12.738281 19.328125 12.519531 19.105469 12.25 19.105469 C 11.980469 19.105469 11.761719 19.328125 11.761719 19.605469 L 11.761719 19.9375 L 11.433594 19.9375 C 11.164062 19.9375 10.945312 20.160156 10.945312 20.4375 C 10.945312 20.714844 11.164062 20.9375 11.433594 20.9375 L 11.761719 20.9375 L 11.761719 21.273438 C 11.761719 21.546875 11.980469 21.773438 12.25 21.773438 C 12.519531 21.773438 12.738281 21.546875 12.738281 21.273438 L 12.738281 20.9375 L 13.066406 20.9375 C 13.335938 20.9375 13.554688 20.714844 13.554688 20.4375 C 13.554688 20.160156 13.335938 19.9375 13.066406 19.9375 Z M 13.066406 19.9375 "/>
</g>
</svg>
