<?xml version="1.0" encoding="UTF-8"?>
<svg xmlns="http://www.w3.org/2000/svg" xmlns:xlink="http://www.w3.org/1999/xlink" width="21pt" height="18pt" viewBox="0 0 21 18" version="1.1">
<defs>
<linearGradient id="linear0" gradientUnits="userSpaceOnUse" x1="32.6895" y1="-11.2388" x2="-8.3009" y2="29.7516" gradientTransform="matrix(0.5,0,0,0.5,0,0)">
<stop offset="0" style="stop-color:rgb(19.215686%,76.078431%,86.666667%);stop-opacity:1;"/>
<stop offset="1" style="stop-color:rgb(4.313725%,60.784314%,84.313725%);stop-opacity:1;"/>
</linearGradient>
<linearGradient id="linear1" gradientUnits="userSpaceOnUse" x1="37.6904" y1="-6.2368" x2="-3.2996" y2="34.7532" gradientTransform="matrix(0.5,0,0,0.5,0,0)">
<stop offset="0" style="stop-color:rgb(19.215686%,76.078431%,86.666667%);stop-opacity:1;"/>
<stop offset="1" style="stop-color:rgb(4.313725%,60.784314%,84.313725%);stop-opacity:1;"/>
</linearGradient>
<linearGradient id="linear2" gradientUnits="userSpaceOnUse" x1="39.4189" y1="-4.5083" x2="-1.5708" y2="36.4814" gradientTransform="matrix(0.5,0,0,0.5,0,0)">
<stop offset="0" style="stop-color:rgb(19.215686%,76.078431%,86.666667%);stop-opacity:1;"/>
<stop offset="1" style="stop-color:rgb(4.313725%,60.784314%,84.313725%);stop-opacity:1;"/>
</linearGradient>
<linearGradient id="linear3" gradientUnits="userSpaceOnUse" x1="38.874" y1="-5.0537" x2="-2.1162" y2="35.9366" gradientTransform="matrix(0.5,0,0,0.5,0,0)">
<stop offset="0" style="stop-color:rgb(19.215686%,76.078431%,86.666667%);stop-opacity:1;"/>
<stop offset="1" style="stop-color:rgb(4.313725%,60.784314%,84.313725%);stop-opacity:1;"/>
</linearGradient>
<linearGradient id="linear4" gradientUnits="userSpaceOnUse" x1="42.4385" y1="-1.4883" x2="1.4489" y2="39.5013" gradientTransform="matrix(0.5,0,0,0.5,0,0)">
<stop offset="0" style="stop-color:rgb(19.215686%,76.078431%,86.666667%);stop-opacity:1;"/>
<stop offset="1" style="stop-color:rgb(4.313725%,60.784314%,84.313725%);stop-opacity:1;"/>
</linearGradient>
<linearGradient id="linear5" gradientUnits="userSpaceOnUse" x1="46.501" y1="2.5757" x2="5.512" y2="43.5647" gradientTransform="matrix(0.5,0,0,0.5,0,0)">
<stop offset="0" style="stop-color:rgb(19.215686%,76.078431%,86.666667%);stop-opacity:1;"/>
<stop offset="1" style="stop-color:rgb(4.313725%,60.784314%,84.313725%);stop-opacity:1;"/>
</linearGradient>
</defs>
<g id="surface1">
<path style=" stroke:none;fill-rule:nonzero;fill:url(#linear0);" d="M 18.191406 2 L 1.257812 2 C 0.703125 2 0.257812 1.550781 0.257812 1 C 0.257812 0.449219 0.703125 0 1.257812 0 L 18.191406 0 C 18.746094 0 19.191406 0.449219 19.191406 1 C 19.191406 1.550781 18.746094 2 18.191406 2 Z M 18.191406 2 "/>
<path style=" stroke:none;fill-rule:nonzero;fill:url(#linear1);" d="M 20.222656 5.195312 L 2.839844 5.195312 C 2.285156 5.195312 1.839844 4.746094 1.839844 4.195312 C 1.839844 3.644531 2.285156 3.195312 2.839844 3.195312 L 20.222656 3.195312 C 20.777344 3.195312 21.222656 3.644531 21.222656 4.195312 C 21.222656 4.746094 20.777344 5.195312 20.222656 5.195312 Z M 20.222656 5.195312 "/>
<path style=" stroke:none;fill-rule:nonzero;fill:url(#linear2);" d="M 18.191406 8.390625 L 1.933594 8.390625 C 1.382812 8.390625 0.933594 7.945312 0.933594 7.390625 C 0.933594 6.839844 1.382812 6.390625 1.933594 6.390625 L 18.191406 6.390625 C 18.746094 6.390625 19.191406 6.839844 19.191406 7.390625 C 19.191406 7.945312 18.746094 8.390625 18.191406 8.390625 Z M 18.191406 8.390625 "/>
<path style=" stroke:none;fill-rule:nonzero;fill:url(#linear3);" d="M 11.644531 11.585938 L 1 11.585938 C 0.449219 11.585938 0 11.140625 0 10.585938 C 0 10.035156 0.449219 9.585938 1 9.585938 L 11.644531 9.585938 C 12.195312 9.585938 12.644531 10.035156 12.644531 10.585938 C 12.644531 11.140625 12.195312 11.585938 11.644531 11.585938 Z M 11.644531 11.585938 "/>
<path style=" stroke:none;fill-rule:nonzero;fill:url(#linear4);" d="M 9.640625 14.78125 L 3.742188 14.78125 C 3.1875 14.78125 2.742188 14.335938 2.742188 13.78125 C 2.742188 13.230469 3.1875 12.78125 3.742188 12.78125 L 9.640625 12.78125 C 10.195312 12.78125 10.640625 13.230469 10.640625 13.78125 C 10.640625 14.335938 10.195312 14.78125 9.640625 14.78125 Z M 9.640625 14.78125 "/>
<path style=" stroke:none;fill-rule:nonzero;fill:url(#linear5);" d="M 8.640625 17.980469 L 6.476562 17.980469 C 5.921875 17.980469 5.476562 17.53125 5.476562 16.980469 C 5.476562 16.425781 5.921875 15.980469 6.476562 15.980469 L 8.640625 15.980469 C 9.195312 15.980469 9.640625 16.425781 9.640625 16.980469 C 9.640625 17.53125 9.195312 17.980469 8.640625 17.980469 Z M 8.640625 17.980469 "/>
</g>
</svg>
