<?xml version="1.0" encoding="UTF-8"?>
<svg xmlns="http://www.w3.org/2000/svg" xmlns:xlink="http://www.w3.org/1999/xlink" width="28pt" height="21pt" viewBox="0 0 28 21" version="1.1">
<defs>
<linearGradient id="linear0" gradientUnits="userSpaceOnUse" x1="60.3037" y1="22.0366" x2="22.5177" y2="59.8227" gradientTransform="matrix(0.491228,0,0,0.5,0,0)">
<stop offset="0" style="stop-color:rgb(19.215686%,76.078431%,86.666667%);stop-opacity:1;"/>
<stop offset="1" style="stop-color:rgb(4.313725%,60.784314%,84.313725%);stop-opacity:1;"/>
</linearGradient>
<linearGradient id="linear1" gradientUnits="userSpaceOnUse" x1="56.0947" y1="17.8281" x2="18.3086" y2="55.6143" gradientTransform="matrix(0.491228,0,0,0.5,0,0)">
<stop offset="0" style="stop-color:rgb(19.215686%,76.078431%,86.666667%);stop-opacity:1;"/>
<stop offset="1" style="stop-color:rgb(4.313725%,60.784314%,84.313725%);stop-opacity:1;"/>
</linearGradient>
<linearGradient id="linear2" gradientUnits="userSpaceOnUse" x1="49.624" y1="11.3569" x2="11.8382" y2="49.1428" gradientTransform="matrix(0.491228,0,0,0.5,0,0)">
<stop offset="0" style="stop-color:rgb(19.215686%,76.078431%,86.666667%);stop-opacity:1;"/>
<stop offset="1" style="stop-color:rgb(4.313725%,60.784314%,84.313725%);stop-opacity:1;"/>
</linearGradient>
<linearGradient id="linear3" gradientUnits="userSpaceOnUse" x1="36.9746" y1="-1.2915" x2="-0.8108" y2="36.4939" gradientTransform="matrix(0.491228,0,0,0.5,0,0)">
<stop offset="0" style="stop-color:rgb(19.215686%,76.078431%,86.666667%);stop-opacity:1;"/>
<stop offset="1" style="stop-color:rgb(4.313725%,60.784314%,84.313725%);stop-opacity:1;"/>
</linearGradient>
<linearGradient id="linear4" gradientUnits="userSpaceOnUse" x1="34.1846" y1="-4.0825" x2="-3.6019" y2="33.704" gradientTransform="matrix(0.491228,0,0,0.5,0,0)">
<stop offset="0" style="stop-color:rgb(19.215686%,76.078431%,86.666667%);stop-opacity:1;"/>
<stop offset="1" style="stop-color:rgb(4.313725%,60.784314%,84.313725%);stop-opacity:1;"/>
</linearGradient>
<linearGradient id="linear5" gradientUnits="userSpaceOnUse" x1="42.626" y1="4.3589" x2="4.8383" y2="42.1465" gradientTransform="matrix(0.491228,0,0,0.5,0,0)">
<stop offset="0" style="stop-color:rgb(19.215686%,76.078431%,86.666667%);stop-opacity:1;"/>
<stop offset="1" style="stop-color:rgb(4.313725%,60.784314%,84.313725%);stop-opacity:1;"/>
</linearGradient>
<linearGradient id="linear6" gradientUnits="userSpaceOnUse" x1="46.6182" y1="8.3511" x2="8.8318" y2="46.1374" gradientTransform="matrix(0.491228,0,0,0.5,0,0)">
<stop offset="0" style="stop-color:rgb(19.215686%,76.078431%,86.666667%);stop-opacity:1;"/>
<stop offset="1" style="stop-color:rgb(4.313725%,60.784314%,84.313725%);stop-opacity:1;"/>
</linearGradient>
</defs>
<g id="surface1">
<path style=" stroke:none;fill-rule:nonzero;fill:url(#linear0);" d="M 26.789062 14.804688 L 24.972656 14.039062 C 24.597656 13.878906 24.167969 14.058594 24.011719 14.441406 C 23.855469 14.824219 24.03125 15.265625 24.410156 15.421875 L 26.222656 16.191406 C 26.316406 16.230469 26.410156 16.25 26.503906 16.25 C 26.792969 16.25 27.066406 16.074219 27.183594 15.785156 C 27.339844 15.402344 27.164062 14.964844 26.789062 14.804688 Z M 26.789062 14.804688 "/>
<path style=" stroke:none;fill-rule:nonzero;fill:url(#linear1);" d="M 28.011719 9.957031 C 27.960938 9.546875 27.585938 9.257812 27.183594 9.3125 L 25.238281 9.570312 C 24.832031 9.625 24.550781 10 24.601562 10.410156 C 24.648438 10.789062 24.964844 11.066406 25.332031 11.066406 C 25.363281 11.066406 25.394531 11.0625 25.429688 11.058594 L 27.375 10.796875 C 27.78125 10.746094 28.0625 10.367188 28.011719 9.957031 Z M 28.011719 9.957031 "/>
<path style=" stroke:none;fill-rule:nonzero;fill:url(#linear2);" d="M 25.726562 5.542969 C 26.050781 5.289062 26.113281 4.820312 25.863281 4.488281 C 25.617188 4.160156 25.15625 4.097656 24.832031 4.351562 L 23.269531 5.566406 C 22.945312 5.816406 22.886719 6.289062 23.132812 6.617188 C 23.277344 6.808594 23.496094 6.910156 23.71875 6.910156 C 23.875 6.910156 24.03125 6.859375 24.164062 6.757812 Z M 25.726562 5.542969 "/>
<path style=" stroke:none;fill-rule:nonzero;fill:url(#linear3);" d="M 15.210938 2.832031 C 15.261719 3.210938 15.578125 3.484375 15.941406 3.484375 C 15.972656 3.484375 16.007812 3.480469 16.039062 3.476562 C 16.441406 3.425781 16.726562 3.046875 16.671875 2.636719 L 16.417969 0.652344 C 16.367188 0.242188 16 -0.0507812 15.59375 0.0078125 C 15.191406 0.0585938 14.90625 0.4375 14.957031 0.847656 Z M 15.210938 2.832031 "/>
<path style=" stroke:none;fill-rule:nonzero;fill:url(#linear4);" d="M 11.277344 4.832031 C 11.421875 5.027344 11.644531 5.125 11.863281 5.125 C 12.019531 5.125 12.175781 5.078125 12.3125 4.972656 C 12.632812 4.71875 12.695312 4.25 12.449219 3.921875 L 11.253906 2.332031 C 11.007812 2.003906 10.546875 1.941406 10.222656 2.191406 C 9.898438 2.445312 9.835938 2.914062 10.085938 3.242188 Z M 11.277344 4.832031 "/>
<path style=" stroke:none;fill-rule:nonzero;fill:url(#linear5);" d="M 20 4.082031 C 20.089844 4.121094 20.1875 4.136719 20.28125 4.136719 C 20.570312 4.136719 20.84375 3.964844 20.960938 3.675781 L 21.714844 1.828125 C 21.871094 1.449219 21.695312 1.007812 21.320312 0.847656 C 20.941406 0.691406 20.511719 0.871094 20.355469 1.253906 L 19.601562 3.101562 C 19.445312 3.480469 19.621094 3.921875 20 4.082031 Z M 20 4.082031 "/>
<path style=" stroke:none;fill-rule:nonzero;fill:url(#linear6);" d="M 22.882812 10.511719 C 22.492188 7.472656 19.929688 5.175781 16.921875 5.175781 C 16.660156 5.175781 16.398438 5.195312 16.136719 5.230469 C 14.691406 5.421875 13.4375 6.128906 12.515625 7.144531 C 11.863281 6.898438 11.164062 6.765625 10.433594 6.765625 C 7.546875 6.765625 5.09375 8.894531 4.546875 11.691406 C 2.027344 11.757812 0 13.863281 0 16.441406 C 0 18.519531 1.367188 20.390625 3.296875 20.980469 C 3.710938 21.121094 4.140625 21.191406 4.574219 21.191406 L 16.980469 21.191406 C 17.457031 21.191406 17.925781 21.105469 18.378906 20.933594 C 20.574219 20.21875 22.046875 18.164062 22.046875 15.816406 C 22.046875 15.425781 22.003906 15.042969 21.925781 14.675781 C 22.699219 13.492188 23.078125 12.03125 22.882812 10.511719 Z M 17.765625 19.035156 L 17.714844 19.054688 C 17.472656 19.144531 17.226562 19.191406 16.980469 19.191406 L 4.574219 19.191406 C 4.351562 19.191406 4.128906 19.15625 3.886719 19.074219 C 2.753906 18.726562 1.964844 17.644531 1.964844 16.441406 C 1.964844 14.925781 3.175781 13.691406 4.667969 13.691406 C 4.851562 13.691406 5.035156 13.710938 5.21875 13.75 L 6.375 13.992188 L 6.398438 12.789062 C 6.445312 10.570312 8.253906 8.761719 10.433594 8.761719 C 12.3125 8.761719 13.929688 10.066406 14.359375 11.929688 L 14.609375 13.023438 L 15.648438 12.644531 C 16.015625 12.507812 16.390625 12.441406 16.765625 12.441406 C 18.59375 12.441406 20.082031 13.953125 20.082031 15.816406 C 20.082031 17.296875 19.152344 18.589844 17.765625 19.035156 Z M 16.769531 10.441406 C 16.5 10.441406 16.230469 10.464844 15.964844 10.503906 C 15.589844 9.585938 15.003906 8.796875 14.28125 8.183594 C 14.859375 7.671875 15.578125 7.320312 16.390625 7.210938 C 16.566406 7.1875 16.746094 7.175781 16.921875 7.175781 C 18.945312 7.175781 20.671875 8.722656 20.933594 10.773438 C 21.003906 11.328125 20.960938 11.871094 20.820312 12.378906 C 19.851562 11.195312 18.394531 10.441406 16.769531 10.441406 Z M 16.769531 10.441406 "/>
</g>
</svg>
