<?xml version="1.0" encoding="UTF-8"?>
<svg xmlns="http://www.w3.org/2000/svg" xmlns:xlink="http://www.w3.org/1999/xlink" width="23pt" height="23pt" viewBox="0 0 23 23" version="1.1">
<defs>
<linearGradient id="linear0" gradientUnits="userSpaceOnUse" x1="43.6074" y1="1.8921" x2="1.1573" y2="44.3422" gradientTransform="matrix(0.511111,0,0,0.511111,0,0)">
<stop offset="0" style="stop-color:rgb(19.215686%,76.078431%,86.666667%);stop-opacity:1;"/>
<stop offset="1" style="stop-color:rgb(4.313725%,60.784314%,84.313725%);stop-opacity:1;"/>
</linearGradient>
<linearGradient id="linear1" gradientUnits="userSpaceOnUse" x1="34.1064" y1="-7.6079" x2="-8.3422" y2="34.8407" gradientTransform="matrix(0.511111,0,0,0.511111,0,0)">
<stop offset="0" style="stop-color:rgb(19.215686%,76.078431%,86.666667%);stop-opacity:1;"/>
<stop offset="1" style="stop-color:rgb(4.313725%,60.784314%,84.313725%);stop-opacity:1;"/>
</linearGradient>
<linearGradient id="linear2" gradientUnits="userSpaceOnUse" x1="30.5049" y1="-11.2104" x2="-11.9451" y2="31.2395" gradientTransform="matrix(0.511111,0,0,0.511111,0,0)">
<stop offset="0" style="stop-color:rgb(19.215686%,76.078431%,86.666667%);stop-opacity:1;"/>
<stop offset="1" style="stop-color:rgb(4.313725%,60.784314%,84.313725%);stop-opacity:1;"/>
</linearGradient>
<linearGradient id="linear3" gradientUnits="userSpaceOnUse" x1="30.4141" y1="-11.3013" x2="-12.0361" y2="31.1489" gradientTransform="matrix(0.511111,0,0,0.511111,0,0)">
<stop offset="0" style="stop-color:rgb(19.215686%,76.078431%,86.666667%);stop-opacity:1;"/>
<stop offset="1" style="stop-color:rgb(4.313725%,60.784314%,84.313725%);stop-opacity:1;"/>
</linearGradient>
<linearGradient id="linear4" gradientUnits="userSpaceOnUse" x1="33.8584" y1="-7.8574" x2="-8.5916" y2="34.5925" gradientTransform="matrix(0.511111,0,0,0.511111,0,0)">
<stop offset="0" style="stop-color:rgb(19.215686%,76.078431%,86.666667%);stop-opacity:1;"/>
<stop offset="1" style="stop-color:rgb(4.313725%,60.784314%,84.313725%);stop-opacity:1;"/>
</linearGradient>
<linearGradient id="linear5" gradientUnits="userSpaceOnUse" x1="39.916" y1="-1.8032" x2="-2.5368" y2="40.6496" gradientTransform="matrix(0.511111,0,0,0.511111,0,0)">
<stop offset="0" style="stop-color:rgb(19.215686%,76.078431%,86.666667%);stop-opacity:1;"/>
<stop offset="1" style="stop-color:rgb(4.313725%,60.784314%,84.313725%);stop-opacity:1;"/>
</linearGradient>
<linearGradient id="linear6" gradientUnits="userSpaceOnUse" x1="46.96" y1="5.2456" x2="4.5104" y2="47.6951" gradientTransform="matrix(0.511111,0,0,0.511111,0,0)">
<stop offset="0" style="stop-color:rgb(19.215686%,76.078431%,86.666667%);stop-opacity:1;"/>
<stop offset="1" style="stop-color:rgb(4.313725%,60.784314%,84.313725%);stop-opacity:1;"/>
</linearGradient>
<linearGradient id="linear7" gradientUnits="userSpaceOnUse" x1="53.1084" y1="11.3931" x2="10.6584" y2="53.843" gradientTransform="matrix(0.511111,0,0,0.511111,0,0)">
<stop offset="0" style="stop-color:rgb(19.215686%,76.078431%,86.666667%);stop-opacity:1;"/>
<stop offset="1" style="stop-color:rgb(4.313725%,60.784314%,84.313725%);stop-opacity:1;"/>
</linearGradient>
<linearGradient id="linear8" gradientUnits="userSpaceOnUse" x1="56.709" y1="14.9937" x2="14.2593" y2="57.4433" gradientTransform="matrix(0.511111,0,0,0.511111,0,0)">
<stop offset="0" style="stop-color:rgb(19.215686%,76.078431%,86.666667%);stop-opacity:1;"/>
<stop offset="1" style="stop-color:rgb(4.313725%,60.784314%,84.313725%);stop-opacity:1;"/>
</linearGradient>
<linearGradient id="linear9" gradientUnits="userSpaceOnUse" x1="56.8008" y1="15.0835" x2="14.3488" y2="57.5355" gradientTransform="matrix(0.511111,0,0,0.511111,0,0)">
<stop offset="0" style="stop-color:rgb(19.215686%,76.078431%,86.666667%);stop-opacity:1;"/>
<stop offset="1" style="stop-color:rgb(4.313725%,60.784314%,84.313725%);stop-opacity:1;"/>
</linearGradient>
<linearGradient id="linear10" gradientUnits="userSpaceOnUse" x1="53.3555" y1="11.6416" x2="10.9073" y2="54.0898" gradientTransform="matrix(0.511111,0,0,0.511111,0,0)">
<stop offset="0" style="stop-color:rgb(19.215686%,76.078431%,86.666667%);stop-opacity:1;"/>
<stop offset="1" style="stop-color:rgb(4.313725%,60.784314%,84.313725%);stop-opacity:1;"/>
</linearGradient>
<linearGradient id="linear11" gradientUnits="userSpaceOnUse" x1="47.2988" y1="5.5845" x2="4.8493" y2="48.034" gradientTransform="matrix(0.511111,0,0,0.511111,0,0)">
<stop offset="0" style="stop-color:rgb(19.215686%,76.078431%,86.666667%);stop-opacity:1;"/>
<stop offset="1" style="stop-color:rgb(4.313725%,60.784314%,84.313725%);stop-opacity:1;"/>
</linearGradient>
<linearGradient id="linear12" gradientUnits="userSpaceOnUse" x1="40.2539" y1="-1.4614" x2="-2.1963" y2="40.9887" gradientTransform="matrix(0.511111,0,0,0.511111,0,0)">
<stop offset="0" style="stop-color:rgb(19.215686%,76.078431%,86.666667%);stop-opacity:1;"/>
<stop offset="1" style="stop-color:rgb(4.313725%,60.784314%,84.313725%);stop-opacity:1;"/>
</linearGradient>
</defs>
<g id="surface1">
<path style=" stroke:none;fill-rule:nonzero;fill:url(#linear0);" d="M 11.628906 17.890625 C 8.175781 17.890625 5.367188 15.082031 5.367188 11.628906 C 5.367188 8.175781 8.175781 5.367188 11.628906 5.367188 C 15.078125 5.367188 17.886719 8.175781 17.886719 11.628906 C 17.886719 15.082031 15.078125 17.890625 11.628906 17.890625 Z M 11.628906 7.410156 C 9.300781 7.410156 7.410156 9.300781 7.410156 11.628906 C 7.410156 13.953125 9.300781 15.84375 11.628906 15.84375 C 13.953125 15.84375 15.84375 13.953125 15.84375 11.628906 C 15.84375 9.300781 13.953125 7.410156 11.628906 7.410156 Z M 11.628906 7.410156 "/>
<path style=" stroke:none;fill-rule:nonzero;fill:url(#linear1);" d="M 11.753906 3.578125 C 11.332031 3.578125 10.988281 3.234375 10.988281 2.8125 L 10.988281 0.765625 C 10.988281 0.34375 11.332031 0 11.753906 0 C 12.179688 0 12.523438 0.34375 12.523438 0.765625 L 12.523438 2.8125 C 12.523438 3.234375 12.179688 3.578125 11.753906 3.578125 Z M 11.753906 3.578125 "/>
<path style=" stroke:none;fill-rule:nonzero;fill:url(#linear2);" d="M 7.332031 4.695312 C 7.066406 4.695312 6.808594 4.558594 6.664062 4.3125 L 5.644531 2.542969 C 5.429688 2.175781 5.558594 1.707031 5.925781 1.496094 C 6.289062 1.28125 6.761719 1.40625 6.972656 1.773438 L 7.992188 3.546875 C 8.207031 3.910156 8.082031 4.378906 7.714844 4.59375 C 7.59375 4.660156 7.460938 4.695312 7.332031 4.695312 Z M 7.332031 4.695312 "/>
<path style=" stroke:none;fill-rule:nonzero;fill:url(#linear3);" d="M 4.054688 7.875 C 3.925781 7.875 3.792969 7.84375 3.671875 7.773438 L 1.902344 6.75 C 1.535156 6.539062 1.410156 6.070312 1.621094 5.703125 C 1.832031 5.335938 2.300781 5.210938 2.667969 5.421875 L 4.4375 6.445312 C 4.804688 6.65625 4.929688 7.125 4.71875 7.492188 C 4.578125 7.738281 4.320312 7.875 4.054688 7.875 Z M 4.054688 7.875 "/>
<path style=" stroke:none;fill-rule:nonzero;fill:url(#linear4);" d="M 2.8125 12.265625 L 0.765625 12.265625 C 0.34375 12.265625 0 11.921875 0 11.5 C 0 11.078125 0.34375 10.734375 0.765625 10.734375 L 2.8125 10.734375 C 3.234375 10.734375 3.578125 11.078125 3.578125 11.5 C 3.578125 11.921875 3.234375 12.265625 2.8125 12.265625 Z M 2.8125 12.265625 "/>
<path style=" stroke:none;fill-rule:nonzero;fill:url(#linear5);" d="M 2.160156 17.714844 C 1.894531 17.714844 1.636719 17.578125 1.496094 17.332031 C 1.28125 16.964844 1.40625 16.496094 1.773438 16.285156 L 3.546875 15.261719 C 3.910156 15.050781 4.378906 15.175781 4.59375 15.542969 C 4.804688 15.910156 4.679688 16.378906 4.3125 16.589844 L 2.542969 17.613281 C 2.421875 17.679688 2.289062 17.714844 2.160156 17.714844 Z M 2.160156 17.714844 "/>
<path style=" stroke:none;fill-rule:nonzero;fill:url(#linear6);" d="M 6.085938 21.734375 C 5.957031 21.734375 5.824219 21.703125 5.703125 21.632812 C 5.335938 21.421875 5.210938 20.953125 5.421875 20.585938 L 6.445312 18.816406 C 6.65625 18.449219 7.125 18.324219 7.492188 18.535156 C 7.859375 18.746094 7.984375 19.214844 7.773438 19.582031 L 6.75 21.351562 C 6.609375 21.597656 6.351562 21.734375 6.085938 21.734375 Z M 6.085938 21.734375 "/>
<path style=" stroke:none;fill-rule:nonzero;fill:url(#linear7);" d="M 11.5 23.253906 C 11.078125 23.253906 10.734375 22.910156 10.734375 22.488281 L 10.734375 20.445312 C 10.734375 20.019531 11.078125 19.675781 11.5 19.675781 C 11.921875 19.675781 12.265625 20.019531 12.265625 20.445312 L 12.265625 22.488281 C 12.265625 22.910156 11.921875 23.253906 11.5 23.253906 Z M 11.5 23.253906 "/>
<path style=" stroke:none;fill-rule:nonzero;fill:url(#linear8);" d="M 16.949219 21.863281 C 16.683594 21.863281 16.425781 21.726562 16.285156 21.480469 L 15.261719 19.710938 C 15.050781 19.34375 15.175781 18.875 15.542969 18.664062 C 15.910156 18.449219 16.378906 18.578125 16.589844 18.941406 L 17.613281 20.710938 C 17.824219 21.078125 17.699219 21.546875 17.332031 21.761719 C 17.210938 21.828125 17.078125 21.863281 16.949219 21.863281 Z M 16.949219 21.863281 "/>
<path style=" stroke:none;fill-rule:nonzero;fill:url(#linear9);" d="M 20.96875 17.933594 C 20.839844 17.933594 20.707031 17.902344 20.585938 17.832031 L 18.816406 16.808594 C 18.449219 16.597656 18.324219 16.128906 18.535156 15.761719 C 18.746094 15.394531 19.214844 15.269531 19.582031 15.480469 L 21.351562 16.503906 C 21.71875 16.714844 21.84375 17.183594 21.632812 17.550781 C 21.492188 17.796875 21.234375 17.933594 20.96875 17.933594 Z M 20.96875 17.933594 "/>
<path style=" stroke:none;fill-rule:nonzero;fill:url(#linear10);" d="M 22.488281 12.519531 L 20.445312 12.519531 C 20.019531 12.519531 19.675781 12.175781 19.675781 11.753906 C 19.675781 11.332031 20.019531 10.988281 20.445312 10.988281 L 22.488281 10.988281 C 22.910156 10.988281 23.253906 11.332031 23.253906 11.753906 C 23.253906 12.175781 22.910156 12.519531 22.488281 12.519531 Z M 22.488281 12.519531 "/>
<path style=" stroke:none;fill-rule:nonzero;fill:url(#linear11);" d="M 19.324219 8.097656 C 19.0625 8.097656 18.804688 7.957031 18.660156 7.710938 C 18.449219 7.34375 18.574219 6.878906 18.941406 6.664062 L 20.710938 5.644531 C 21.082031 5.429688 21.546875 5.558594 21.761719 5.925781 C 21.972656 6.292969 21.847656 6.761719 21.480469 6.972656 L 19.707031 7.992188 C 19.585938 8.0625 19.457031 8.097656 19.324219 8.097656 Z M 19.324219 8.097656 "/>
<path style=" stroke:none;fill-rule:nonzero;fill:url(#linear12);" d="M 16.144531 4.824219 C 16.015625 4.824219 15.882812 4.789062 15.761719 4.71875 C 15.394531 4.507812 15.269531 4.039062 15.480469 3.671875 L 16.503906 1.902344 C 16.714844 1.535156 17.183594 1.410156 17.550781 1.621094 C 17.917969 1.832031 18.042969 2.304688 17.832031 2.667969 L 16.808594 4.441406 C 16.667969 4.683594 16.410156 4.824219 16.144531 4.824219 Z M 16.144531 4.824219 "/>
</g>
</svg>
