<?xml version="1.0" encoding="UTF-8"?>
<svg xmlns="http://www.w3.org/2000/svg" xmlns:xlink="http://www.w3.org/1999/xlink" width="22pt" height="17pt" viewBox="0 0 22 17" version="1.1">
<defs>
<linearGradient id="linear0" gradientUnits="userSpaceOnUse" x1="44.9229" y1="2.8682" x2="4.8981" y2="42.8929" gradientTransform="matrix(0.488889,0,0,0.5,0,0)">
<stop offset="0" style="stop-color:rgb(19.215686%,76.078431%,86.666667%);stop-opacity:1;"/>
<stop offset="1" style="stop-color:rgb(4.313725%,60.784314%,84.313725%);stop-opacity:1;"/>
</linearGradient>
<linearGradient id="linear1" gradientUnits="userSpaceOnUse" x1="48.1182" y1="6.0635" x2="8.0937" y2="46.0879" gradientTransform="matrix(0.488889,0,0,0.5,0,0)">
<stop offset="0" style="stop-color:rgb(19.215686%,76.078431%,86.666667%);stop-opacity:1;"/>
<stop offset="1" style="stop-color:rgb(4.313725%,60.784314%,84.313725%);stop-opacity:1;"/>
</linearGradient>
<linearGradient id="linear2" gradientUnits="userSpaceOnUse" x1="40.8389" y1="-1.2163" x2="0.8137" y2="38.8088" gradientTransform="matrix(0.488889,0,0,0.5,0,0)">
<stop offset="0" style="stop-color:rgb(19.215686%,76.078431%,86.666667%);stop-opacity:1;"/>
<stop offset="1" style="stop-color:rgb(4.313725%,60.784314%,84.313725%);stop-opacity:1;"/>
</linearGradient>
</defs>
<g id="surface1">
<path style=" stroke:none;fill-rule:nonzero;fill:url(#linear0);" d="M 0.976562 13.660156 L 20.996094 13.660156 C 21.535156 13.660156 21.972656 13.210938 21.972656 12.660156 C 21.972656 12.105469 21.535156 11.660156 20.996094 11.660156 L 0.976562 11.660156 C 0.4375 11.660156 0 12.105469 0 12.660156 C 0 13.210938 0.4375 13.660156 0.976562 13.660156 Z M 0.976562 13.660156 "/>
<path style=" stroke:none;fill-rule:nonzero;fill:url(#linear1);" d="M 20.996094 14.855469 L 0.976562 14.855469 C 0.4375 14.855469 0 15.304688 0 15.855469 C 0 16.40625 0.4375 16.855469 0.976562 16.855469 L 20.996094 16.855469 C 21.535156 16.855469 21.972656 16.40625 21.972656 15.855469 C 21.972656 15.304688 21.535156 14.855469 20.996094 14.855469 Z M 20.996094 14.855469 "/>
<path style=" stroke:none;fill-rule:nonzero;fill:url(#linear2);" d="M 0.976562 10.675781 C 1.515625 10.675781 1.957031 10.230469 1.957031 9.675781 C 1.957031 8.160156 3.164062 6.925781 4.644531 6.925781 C 4.828125 6.925781 5.011719 6.945312 5.195312 6.984375 L 6.34375 7.226562 L 6.371094 6.027344 C 6.414062 3.804688 8.214844 2 10.382812 2 C 12.253906 2 13.863281 3.300781 14.289062 5.167969 L 14.542969 6.257812 L 15.574219 5.878906 C 15.9375 5.746094 16.3125 5.679688 16.6875 5.679688 C 18.507812 5.679688 19.988281 7.191406 19.988281 9.054688 C 19.988281 9.605469 20.425781 10.054688 20.964844 10.054688 C 21.503906 10.054688 21.941406 9.605469 21.941406 9.054688 C 21.941406 6.089844 19.585938 3.679688 16.6875 3.679688 C 16.417969 3.679688 16.152344 3.699219 15.886719 3.742188 C 14.972656 1.496094 12.828125 0 10.382812 0 C 7.511719 0 5.070312 2.132812 4.527344 4.929688 C 2.019531 4.992188 0 7.097656 0 9.675781 C 0 10.230469 0.4375 10.675781 0.976562 10.675781 Z M 0.976562 10.675781 "/>
</g>
</svg>
