<?xml version="1.0" encoding="UTF-8"?>
<svg xmlns="http://www.w3.org/2000/svg" xmlns:xlink="http://www.w3.org/1999/xlink" width="23pt" height="19pt" viewBox="0 0 23 19" version="1.1">
<defs>
<linearGradient id="linear0" gradientUnits="userSpaceOnUse" x1="40.9902" y1="0.4526" x2="0.5646" y2="40.8783" gradientTransform="matrix(0.511111,0,0,0.513514,0,0)">
<stop offset="0" style="stop-color:rgb(19.215686%,76.078431%,86.666667%);stop-opacity:1;"/>
<stop offset="1" style="stop-color:rgb(4.313725%,60.784314%,84.313725%);stop-opacity:1;"/>
</linearGradient>
<linearGradient id="linear1" gradientUnits="userSpaceOnUse" x1="43.1182" y1="2.5835" x2="2.6942" y2="43.0075" gradientTransform="matrix(0.511111,0,0,0.513514,0,0)">
<stop offset="0" style="stop-color:rgb(19.215686%,76.078431%,86.666667%);stop-opacity:1;"/>
<stop offset="1" style="stop-color:rgb(4.313725%,60.784314%,84.313725%);stop-opacity:1;"/>
</linearGradient>
<linearGradient id="linear2" gradientUnits="userSpaceOnUse" x1="48.0566" y1="7.52" x2="7.6315" y2="47.9452" gradientTransform="matrix(0.511111,0,0,0.513514,0,0)">
<stop offset="0" style="stop-color:rgb(19.215686%,76.078431%,86.666667%);stop-opacity:1;"/>
<stop offset="1" style="stop-color:rgb(4.313725%,60.784314%,84.313725%);stop-opacity:1;"/>
</linearGradient>
<linearGradient id="linear3" gradientUnits="userSpaceOnUse" x1="52.9951" y1="12.457" x2="12.5694" y2="52.8827" gradientTransform="matrix(0.511111,0,0,0.513514,0,0)">
<stop offset="0" style="stop-color:rgb(19.215686%,76.078431%,86.666667%);stop-opacity:1;"/>
<stop offset="1" style="stop-color:rgb(4.313725%,60.784314%,84.313725%);stop-opacity:1;"/>
</linearGradient>
</defs>
<g id="surface1">
<path style=" stroke:none;fill-rule:nonzero;fill:url(#linear0);" d="M 17.445312 3.777344 C 17.167969 3.777344 16.886719 3.800781 16.609375 3.84375 C 15.652344 1.535156 13.414062 0 10.855469 0 C 7.851562 0 5.300781 2.1875 4.730469 5.0625 C 2.113281 5.128906 0 7.289062 0 9.9375 C 0 12.074219 1.421875 13.996094 3.429688 14.601562 C 3.863281 14.746094 4.308594 14.816406 4.761719 14.816406 L 17.667969 14.816406 C 18.164062 14.816406 18.652344 14.730469 19.125 14.554688 C 21.40625 13.820312 22.941406 11.710938 22.941406 9.296875 C 22.941406 6.253906 20.476562 3.777344 17.445312 3.777344 Z M 18.484375 12.601562 L 18.429688 12.621094 C 18.179688 12.714844 17.925781 12.761719 17.667969 12.761719 L 4.757812 12.761719 C 4.527344 12.761719 4.296875 12.726562 4.046875 12.644531 C 2.867188 12.289062 2.042969 11.175781 2.042969 9.9375 C 2.042969 8.382812 3.304688 7.113281 4.855469 7.113281 C 5.046875 7.113281 5.242188 7.132812 5.429688 7.171875 L 6.632812 7.421875 L 6.660156 6.1875 C 6.703125 3.910156 8.585938 2.054688 10.855469 2.054688 C 12.8125 2.054688 14.492188 3.390625 14.941406 5.308594 L 15.203125 6.429688 L 16.28125 6.039062 C 16.664062 5.902344 17.054688 5.832031 17.445312 5.832031 C 19.347656 5.832031 20.894531 7.386719 20.894531 9.296875 C 20.894531 10.816406 19.925781 12.148438 18.484375 12.601562 Z M 18.484375 12.601562 "/>
<path style=" stroke:none;fill-rule:nonzero;fill:url(#linear1);" d="M 6.671875 17.105469 L 6.332031 17.105469 L 6.332031 16.765625 C 6.332031 16.480469 6.105469 16.25 5.820312 16.25 C 5.539062 16.25 5.308594 16.480469 5.308594 16.765625 L 5.308594 17.105469 L 4.96875 17.105469 C 4.6875 17.105469 4.457031 17.335938 4.457031 17.621094 C 4.457031 17.902344 4.6875 18.132812 4.96875 18.132812 L 5.308594 18.132812 L 5.308594 18.476562 C 5.308594 18.761719 5.539062 18.988281 5.820312 18.988281 C 6.105469 18.988281 6.332031 18.761719 6.332031 18.476562 L 6.332031 18.132812 L 6.671875 18.132812 C 6.957031 18.132812 7.183594 17.902344 7.183594 17.621094 C 7.183594 17.335938 6.957031 17.105469 6.671875 17.105469 Z M 6.671875 17.105469 "/>
<path style=" stroke:none;fill-rule:nonzero;fill:url(#linear2);" d="M 11.71875 17.105469 L 11.378906 17.105469 L 11.378906 16.765625 C 11.378906 16.480469 11.152344 16.25 10.867188 16.25 C 10.585938 16.25 10.355469 16.480469 10.355469 16.765625 L 10.355469 17.105469 L 10.015625 17.105469 C 9.734375 17.105469 9.503906 17.335938 9.503906 17.621094 C 9.503906 17.902344 9.734375 18.132812 10.015625 18.132812 L 10.355469 18.132812 L 10.355469 18.476562 C 10.355469 18.761719 10.585938 18.988281 10.867188 18.988281 C 11.152344 18.988281 11.378906 18.761719 11.378906 18.476562 L 11.378906 18.132812 L 11.71875 18.132812 C 12.003906 18.132812 12.230469 17.902344 12.230469 17.621094 C 12.230469 17.335938 12.003906 17.105469 11.71875 17.105469 Z M 11.71875 17.105469 "/>
<path style=" stroke:none;fill-rule:nonzero;fill:url(#linear3);" d="M 16.765625 17.105469 L 16.425781 17.105469 L 16.425781 16.765625 C 16.425781 16.480469 16.199219 16.25 15.914062 16.25 C 15.632812 16.25 15.40625 16.480469 15.40625 16.765625 L 15.40625 17.105469 L 15.0625 17.105469 C 14.78125 17.105469 14.554688 17.335938 14.554688 17.621094 C 14.554688 17.902344 14.78125 18.132812 15.0625 18.132812 L 15.40625 18.132812 L 15.40625 18.476562 C 15.40625 18.761719 15.632812 18.988281 15.914062 18.988281 C 16.199219 18.988281 16.425781 18.761719 16.425781 18.476562 L 16.425781 18.132812 L 16.765625 18.132812 C 17.050781 18.132812 17.277344 17.902344 17.277344 17.621094 C 17.277344 17.335938 17.050781 17.105469 16.765625 17.105469 Z M 16.765625 17.105469 "/>
</g>
</svg>
