<?xml version="1.0" encoding="UTF-8"?>
<svg xmlns="http://www.w3.org/2000/svg" xmlns:xlink="http://www.w3.org/1999/xlink" width="23pt" height="23pt" viewBox="0 0 23 23" version="1.1">
<defs>
<linearGradient id="linear0" gradientUnits="userSpaceOnUse" x1="39.0796" y1="2.3638" x2="1.5504" y2="39.8929" gradientTransform="matrix(0.511111,0,0,0.511111,0,0)">
<stop offset="0" style="stop-color:rgb(19.215686%,76.078431%,86.666667%);stop-opacity:1;"/>
<stop offset="1" style="stop-color:rgb(4.313725%,60.784314%,84.313725%);stop-opacity:1;"/>
</linearGradient>
<linearGradient id="linear1" gradientUnits="userSpaceOnUse" x1="41.4692" y1="4.7529" x2="3.9397" y2="42.2825" gradientTransform="matrix(0.511111,0,0,0.511111,0,0)">
<stop offset="0" style="stop-color:rgb(19.215686%,76.078431%,86.666667%);stop-opacity:1;"/>
<stop offset="1" style="stop-color:rgb(4.313725%,60.784314%,84.313725%);stop-opacity:1;"/>
</linearGradient>
<linearGradient id="linear2" gradientUnits="userSpaceOnUse" x1="50.9673" y1="14.2554" x2="13.4425" y2="51.7802" gradientTransform="matrix(0.511111,0,0,0.511111,0,0)">
<stop offset="0" style="stop-color:rgb(19.215686%,76.078431%,86.666667%);stop-opacity:1;"/>
<stop offset="1" style="stop-color:rgb(4.313725%,60.784314%,84.313725%);stop-opacity:1;"/>
</linearGradient>
<linearGradient id="linear3" gradientUnits="userSpaceOnUse" x1="48.2085" y1="11.4902" x2="10.6783" y2="49.0204" gradientTransform="matrix(0.511111,0,0,0.511111,0,0)">
<stop offset="0" style="stop-color:rgb(19.215686%,76.078431%,86.666667%);stop-opacity:1;"/>
<stop offset="1" style="stop-color:rgb(4.313725%,60.784314%,84.313725%);stop-opacity:1;"/>
</linearGradient>
<linearGradient id="linear4" gradientUnits="userSpaceOnUse" x1="46.1235" y1="9.4126" x2="8.5972" y2="46.939" gradientTransform="matrix(0.511111,0,0,0.511111,0,0)">
<stop offset="0" style="stop-color:rgb(19.215686%,76.078431%,86.666667%);stop-opacity:1;"/>
<stop offset="1" style="stop-color:rgb(4.313725%,60.784314%,84.313725%);stop-opacity:1;"/>
</linearGradient>
</defs>
<g id="surface1">
<path style=" stroke:none;fill-rule:nonzero;fill:url(#linear0);" d="M 17.445312 3.757812 C 17.167969 3.757812 16.886719 3.78125 16.609375 3.824219 C 15.652344 1.527344 13.414062 0 10.855469 0 C 7.851562 0 5.300781 2.179688 4.730469 5.039062 C 2.113281 5.105469 0 7.257812 0 9.890625 C 0 12.019531 1.421875 13.929688 3.429688 14.535156 C 3.863281 14.675781 4.308594 14.75 4.761719 14.75 L 17.667969 14.75 C 18.160156 14.75 18.652344 14.660156 19.125 14.484375 C 21.410156 13.753906 22.941406 11.65625 22.941406 9.253906 C 22.941406 6.222656 20.476562 3.757812 17.445312 3.757812 Z M 18.484375 12.542969 L 18.433594 12.5625 C 18.183594 12.65625 17.925781 12.703125 17.667969 12.703125 L 4.757812 12.703125 C 4.527344 12.703125 4.296875 12.667969 4.046875 12.585938 C 2.867188 12.230469 2.042969 11.125 2.042969 9.890625 C 2.042969 8.34375 3.304688 7.082031 4.855469 7.082031 C 5.046875 7.082031 5.242188 7.101562 5.429688 7.140625 L 6.632812 7.386719 L 6.660156 6.160156 C 6.703125 3.890625 8.585938 2.042969 10.855469 2.042969 C 12.8125 2.042969 14.492188 3.375 14.941406 5.28125 L 15.203125 6.398438 L 16.28125 6.011719 C 16.664062 5.875 17.054688 5.804688 17.445312 5.804688 C 19.347656 5.804688 20.894531 7.351562 20.894531 9.253906 C 20.894531 10.765625 19.925781 12.089844 18.484375 12.542969 Z M 18.484375 12.542969 "/>
<path style=" stroke:none;fill-rule:nonzero;fill:url(#linear1);" d="M 6.886719 16.085938 C 6.519531 15.871094 6.050781 16 5.839844 16.363281 L 4.816406 18.136719 C 4.605469 18.503906 4.730469 18.972656 5.097656 19.183594 C 5.21875 19.253906 5.351562 19.285156 5.480469 19.285156 C 5.746094 19.285156 6.003906 19.148438 6.144531 18.902344 L 7.167969 17.132812 C 7.378906 16.765625 7.253906 16.296875 6.886719 16.085938 Z M 6.886719 16.085938 "/>
<path style=" stroke:none;fill-rule:nonzero;fill:url(#linear2);" d="M 16.597656 16.085938 C 16.230469 15.871094 15.761719 16 15.550781 16.363281 L 14.527344 18.136719 C 14.316406 18.503906 14.441406 18.972656 14.808594 19.183594 C 14.929688 19.253906 15.0625 19.285156 15.191406 19.285156 C 15.457031 19.285156 15.714844 19.148438 15.855469 18.902344 L 16.878906 17.132812 C 17.089844 16.765625 16.964844 16.296875 16.597656 16.085938 Z M 16.597656 16.085938 "/>
<path style=" stroke:none;fill-rule:nonzero;fill:url(#linear3);" d="M 12.90625 17.613281 L 11.726562 17.613281 L 12.011719 17.152344 C 12.234375 16.792969 12.121094 16.316406 11.761719 16.097656 C 11.402344 15.875 10.929688 15.984375 10.707031 16.34375 L 9.699219 17.976562 C 9.550781 18.214844 9.546875 18.511719 9.679688 18.753906 C 9.816406 18.996094 10.074219 19.144531 10.351562 19.144531 L 11.597656 19.144531 L 11.214844 19.824219 C 11.210938 19.832031 11.210938 19.835938 11.207031 19.839844 C 11.1875 19.867188 11.164062 19.894531 11.148438 19.925781 L 10.160156 21.714844 C 9.957031 22.085938 10.09375 22.550781 10.464844 22.757812 C 10.585938 22.824219 10.71875 22.855469 10.847656 22.851562 C 11.113281 22.847656 11.367188 22.703125 11.503906 22.457031 L 11.9375 21.667969 C 12.535156 20.609375 13.574219 18.753906 13.574219 18.753906 C 13.707031 18.515625 13.703125 18.226562 13.566406 17.992188 C 13.429688 17.757812 13.179688 17.613281 12.90625 17.613281 Z M 12.90625 17.613281 "/>
<path style=" stroke:none;fill-rule:nonzero;fill:url(#linear4);" d="M 8.324219 19.40625 C 7.957031 19.195312 7.488281 19.320312 7.277344 19.6875 L 6.253906 21.457031 C 6.042969 21.824219 6.167969 22.292969 6.535156 22.503906 C 6.65625 22.574219 6.785156 22.609375 6.917969 22.609375 C 7.183594 22.609375 7.441406 22.46875 7.582031 22.222656 L 8.605469 20.453125 C 8.816406 20.085938 8.6875 19.617188 8.324219 19.40625 Z M 8.324219 19.40625 "/>
</g>
</svg>
