<?xml version="1.0" encoding="UTF-8"?>
<svg xmlns="http://www.w3.org/2000/svg" xmlns:xlink="http://www.w3.org/1999/xlink" width="29pt" height="26pt" viewBox="0 0 29 26" version="1.1">
<defs>
<linearGradient id="linear0" gradientUnits="userSpaceOnUse" x1="37.208" y1="-1.5259" x2="3.8677" y2="31.8144" gradientTransform="matrix(0.508772,0,0,0.509804,0,0)">
<stop offset="0" style="stop-color:rgb(19.215686%,76.078431%,86.666667%);stop-opacity:1;"/>
<stop offset="1" style="stop-color:rgb(4.313725%,60.784314%,84.313725%);stop-opacity:1;"/>
</linearGradient>
<linearGradient id="linear1" gradientUnits="userSpaceOnUse" x1="34.418" y1="-4.3154" x2="1.0778" y2="29.0248" gradientTransform="matrix(0.508772,0,0,0.509804,0,0)">
<stop offset="0" style="stop-color:rgb(19.215686%,76.078431%,86.666667%);stop-opacity:1;"/>
<stop offset="1" style="stop-color:rgb(4.313725%,60.784314%,84.313725%);stop-opacity:1;"/>
</linearGradient>
<linearGradient id="linear2" gradientUnits="userSpaceOnUse" x1="60.5371" y1="21.8032" x2="27.1948" y2="55.1455" gradientTransform="matrix(0.508772,0,0,0.509804,0,0)">
<stop offset="0" style="stop-color:rgb(19.215686%,76.078431%,86.666667%);stop-opacity:1;"/>
<stop offset="1" style="stop-color:rgb(4.313725%,60.784314%,84.313725%);stop-opacity:1;"/>
</linearGradient>
<linearGradient id="linear3" gradientUnits="userSpaceOnUse" x1="56.3271" y1="17.5933" x2="22.9864" y2="50.934" gradientTransform="matrix(0.508772,0,0,0.509804,0,0)">
<stop offset="0" style="stop-color:rgb(19.215686%,76.078431%,86.666667%);stop-opacity:1;"/>
<stop offset="1" style="stop-color:rgb(4.313725%,60.784314%,84.313725%);stop-opacity:1;"/>
</linearGradient>
<linearGradient id="linear4" gradientUnits="userSpaceOnUse" x1="49.8574" y1="11.1235" x2="16.5191" y2="44.4619" gradientTransform="matrix(0.508772,0,0,0.509804,0,0)">
<stop offset="0" style="stop-color:rgb(19.215686%,76.078431%,86.666667%);stop-opacity:1;"/>
<stop offset="1" style="stop-color:rgb(4.313725%,60.784314%,84.313725%);stop-opacity:1;"/>
</linearGradient>
<linearGradient id="linear5" gradientUnits="userSpaceOnUse" x1="42.8594" y1="4.1255" x2="9.5155" y2="37.4693" gradientTransform="matrix(0.508772,0,0,0.509804,0,0)">
<stop offset="0" style="stop-color:rgb(19.215686%,76.078431%,86.666667%);stop-opacity:1;"/>
<stop offset="1" style="stop-color:rgb(4.313725%,60.784314%,84.313725%);stop-opacity:1;"/>
</linearGradient>
<linearGradient id="linear6" gradientUnits="userSpaceOnUse" x1="46.8525" y1="8.1182" x2="13.5119" y2="41.4588" gradientTransform="matrix(0.508772,0,0,0.509804,0,0)">
<stop offset="0" style="stop-color:rgb(19.215686%,76.078431%,86.666667%);stop-opacity:1;"/>
<stop offset="1" style="stop-color:rgb(4.313725%,60.784314%,84.313725%);stop-opacity:1;"/>
</linearGradient>
<linearGradient id="linear7" gradientUnits="userSpaceOnUse" x1="49.2441" y1="10.5063" x2="15.9021" y2="43.8484" gradientTransform="matrix(0.508772,0,0,0.509804,0,0)">
<stop offset="0" style="stop-color:rgb(19.215686%,76.078431%,86.666667%);stop-opacity:1;"/>
<stop offset="1" style="stop-color:rgb(4.313725%,60.784314%,84.313725%);stop-opacity:1;"/>
</linearGradient>
<linearGradient id="linear8" gradientUnits="userSpaceOnUse" x1="53.9922" y1="15.2578" x2="20.6515" y2="48.5985" gradientTransform="matrix(0.508772,0,0,0.509804,0,0)">
<stop offset="0" style="stop-color:rgb(19.215686%,76.078431%,86.666667%);stop-opacity:1;"/>
<stop offset="1" style="stop-color:rgb(4.313725%,60.784314%,84.313725%);stop-opacity:1;"/>
</linearGradient>
<linearGradient id="linear9" gradientUnits="userSpaceOnUse" x1="58.7432" y1="20.0078" x2="25.402" y2="53.349" gradientTransform="matrix(0.508772,0,0,0.509804,0,0)">
<stop offset="0" style="stop-color:rgb(19.215686%,76.078431%,86.666667%);stop-opacity:1;"/>
<stop offset="1" style="stop-color:rgb(4.313725%,60.784314%,84.313725%);stop-opacity:1;"/>
</linearGradient>
</defs>
<g id="surface1">
<path style=" stroke:none;fill-rule:nonzero;fill:url(#linear0);" d="M 15.757812 2.886719 C 15.804688 3.273438 16.132812 3.550781 16.511719 3.550781 C 16.542969 3.550781 16.578125 3.550781 16.609375 3.546875 C 17.027344 3.492188 17.324219 3.109375 17.269531 2.6875 L 17.003906 0.667969 C 16.953125 0.25 16.570312 -0.0507812 16.152344 0.0078125 C 15.734375 0.0625 15.4375 0.445312 15.492188 0.863281 Z M 15.757812 2.886719 "/>
<path style=" stroke:none;fill-rule:nonzero;fill:url(#linear1);" d="M 11.679688 4.925781 C 11.832031 5.125 12.058594 5.226562 12.289062 5.226562 C 12.449219 5.226562 12.613281 5.175781 12.75 5.070312 C 13.085938 4.8125 13.148438 4.332031 12.894531 3.996094 L 11.65625 2.378906 C 11.402344 2.042969 10.921875 1.980469 10.585938 2.234375 C 10.253906 2.492188 10.1875 2.972656 10.445312 3.308594 Z M 11.679688 4.925781 "/>
<path style=" stroke:none;fill-rule:nonzero;fill:url(#linear2);" d="M 27.746094 15.097656 L 25.867188 14.3125 C 25.476562 14.152344 25.03125 14.335938 24.867188 14.726562 C 24.707031 15.117188 24.890625 15.5625 25.28125 15.726562 L 27.160156 16.507812 C 27.253906 16.546875 27.355469 16.566406 27.453125 16.566406 C 27.75 16.566406 28.035156 16.390625 28.15625 16.09375 C 28.316406 15.707031 28.132812 15.257812 27.746094 15.097656 Z M 27.746094 15.097656 "/>
<path style=" stroke:none;fill-rule:nonzero;fill:url(#linear3);" d="M 29.011719 10.152344 C 28.957031 9.734375 28.574219 9.4375 28.15625 9.492188 L 26.136719 9.757812 C 25.71875 9.8125 25.425781 10.195312 25.480469 10.613281 C 25.53125 11 25.859375 11.28125 26.234375 11.28125 C 26.269531 11.28125 26.300781 11.28125 26.335938 11.273438 L 28.351562 11.011719 C 28.773438 10.957031 29.066406 10.570312 29.011719 10.152344 Z M 29.011719 10.152344 "/>
<path style=" stroke:none;fill-rule:nonzero;fill:url(#linear4);" d="M 26.644531 5.652344 C 26.980469 5.394531 27.042969 4.914062 26.789062 4.578125 C 26.53125 4.242188 26.054688 4.179688 25.71875 4.4375 L 24.101562 5.675781 C 23.765625 5.929688 23.703125 6.410156 23.960938 6.746094 C 24.109375 6.945312 24.335938 7.046875 24.566406 7.046875 C 24.726562 7.046875 24.890625 6.996094 25.027344 6.890625 Z M 26.644531 5.652344 "/>
<path style=" stroke:none;fill-rule:nonzero;fill:url(#linear5);" d="M 20.710938 4.160156 C 20.808594 4.199219 20.90625 4.21875 21.003906 4.21875 C 21.304688 4.21875 21.589844 4.042969 21.710938 3.75 L 22.492188 1.867188 C 22.652344 1.476562 22.46875 1.027344 22.082031 0.867188 C 21.691406 0.703125 21.246094 0.886719 21.082031 1.277344 L 20.300781 3.160156 C 20.140625 3.550781 20.324219 3.996094 20.710938 4.160156 Z M 20.710938 4.160156 "/>
<path style=" stroke:none;fill-rule:nonzero;fill:url(#linear6);" d="M 23.699219 10.71875 C 23.296875 7.617188 20.640625 5.277344 17.527344 5.277344 C 17.257812 5.277344 16.984375 5.296875 16.714844 5.332031 C 15.214844 5.527344 13.917969 6.25 12.964844 7.28125 C 12.289062 7.035156 11.5625 6.898438 10.804688 6.898438 C 7.816406 6.898438 5.277344 9.070312 4.710938 11.921875 C 2.101562 11.988281 0 14.132812 0 16.765625 C 0 18.882812 1.414062 20.789062 3.414062 21.394531 C 3.84375 21.535156 4.289062 21.605469 4.738281 21.605469 L 17.585938 21.605469 C 18.078125 21.605469 18.566406 21.519531 19.035156 21.34375 C 21.308594 20.617188 22.835938 18.523438 22.835938 16.125 C 22.835938 15.726562 22.789062 15.339844 22.710938 14.964844 C 23.511719 13.753906 23.902344 12.265625 23.699219 10.71875 Z M 18.398438 19.410156 L 18.347656 19.425781 C 18.097656 19.519531 17.84375 19.566406 17.585938 19.566406 L 4.738281 19.566406 C 4.507812 19.566406 4.277344 19.53125 4.027344 19.449219 C 2.855469 19.09375 2.035156 17.992188 2.035156 16.765625 C 2.035156 15.21875 3.289062 13.960938 4.832031 13.960938 C 5.023438 13.960938 5.21875 13.980469 5.40625 14.019531 L 6.601562 14.265625 L 6.628906 13.039062 C 6.675781 10.777344 8.546875 8.933594 10.804688 8.933594 C 12.753906 8.933594 14.425781 10.261719 14.871094 12.164062 L 15.132812 13.277344 L 16.207031 12.890625 C 16.585938 12.753906 16.976562 12.683594 17.367188 12.683594 C 19.257812 12.683594 20.800781 14.230469 20.800781 16.125 C 20.800781 17.636719 19.835938 18.957031 18.398438 19.410156 Z M 17.367188 10.644531 C 17.089844 10.644531 16.808594 10.667969 16.535156 10.710938 C 16.144531 9.777344 15.539062 8.972656 14.789062 8.34375 C 15.386719 7.824219 16.136719 7.464844 16.976562 7.355469 C 17.160156 7.328125 17.34375 7.316406 17.527344 7.316406 C 19.625 7.316406 21.410156 8.894531 21.679688 10.984375 C 21.753906 11.550781 21.707031 12.101562 21.566406 12.621094 C 20.5625 11.414062 19.050781 10.644531 17.367188 10.644531 Z M 17.367188 10.644531 "/>
<path style=" stroke:none;fill-rule:nonzero;fill:url(#linear7);" d="M 6.855469 22.9375 C 6.488281 22.726562 6.023438 22.851562 5.8125 23.21875 L 4.796875 24.984375 C 4.585938 25.351562 4.710938 25.820312 5.074219 26.03125 C 5.195312 26.097656 5.324219 26.132812 5.457031 26.132812 C 5.71875 26.132812 5.976562 25.996094 6.117188 25.75 L 7.132812 23.984375 C 7.34375 23.617188 7.21875 23.148438 6.855469 22.9375 Z M 6.855469 22.9375 "/>
<path style=" stroke:none;fill-rule:nonzero;fill:url(#linear8);" d="M 11.6875 22.9375 C 11.324219 22.726562 10.855469 22.851562 10.644531 23.21875 L 9.628906 24.984375 C 9.417969 25.351562 9.542969 25.820312 9.90625 26.03125 C 10.027344 26.097656 10.160156 26.132812 10.289062 26.132812 C 10.554688 26.132812 10.808594 25.996094 10.949219 25.75 L 11.96875 23.984375 C 12.179688 23.617188 12.054688 23.148438 11.6875 22.9375 Z M 11.6875 22.9375 "/>
<path style=" stroke:none;fill-rule:nonzero;fill:url(#linear9);" d="M 16.519531 22.9375 C 16.15625 22.726562 15.691406 22.851562 15.480469 23.21875 L 14.460938 24.984375 C 14.25 25.351562 14.375 25.820312 14.742188 26.03125 C 14.859375 26.097656 14.992188 26.132812 15.121094 26.132812 C 15.386719 26.132812 15.640625 25.996094 15.785156 25.75 L 16.800781 23.984375 C 17.011719 23.617188 16.886719 23.148438 16.519531 22.9375 Z M 16.519531 22.9375 "/>
</g>
</svg>
